<?xml version="1.0" encoding="UTF-8"?>
<!DOCTYPE svg PUBLIC "-//W3C//DTD SVG 1.1//EN" "http://www.w3.org/Graphics/SVG/1.1/DTD/svg11.dtd">
<svg xmlns="http://www.w3.org/2000/svg" version="1.1" width="512px" height="512px" style="shape-rendering:geometricPrecision; text-rendering:geometricPrecision; image-rendering:optimizeQuality; fill-rule:evenodd; clip-rule:evenodd" xmlns:xlink="http://www.w3.org/1999/xlink">
<g><path style="opacity:0.995" fill="#f7d139" d="M 486.5,101.5 C 413.5,143.5 340.5,185.5 267.5,227.5C 260.952,224.893 254.619,221.726 248.5,218C 219.606,201.392 190.939,184.559 162.5,167.5C 235.273,124.941 308.273,82.6076 381.5,40.5C 416.727,60.6076 451.727,80.9409 486.5,101.5 Z"/></g>
<g><path style="opacity:0.997" fill="#f08700" d="M 486.5,101.5 C 486.5,141.5 486.5,181.5 486.5,221.5C 413.167,263.5 339.833,305.5 266.5,347.5C 266.173,307.428 266.506,267.428 267.5,227.5C 340.5,185.5 413.5,143.5 486.5,101.5 Z"/></g>
<g><path style="opacity:1" fill="#f3af01" d="M 162.5,167.5 C 190.939,184.559 219.606,201.392 248.5,218C 254.619,221.726 260.952,224.893 267.5,227.5C 266.506,267.428 266.173,307.428 266.5,347.5C 262.833,345.5 259.167,343.5 255.5,341.5C 255.5,341.167 255.5,340.833 255.5,340.5C 255.667,316.831 255.5,293.164 255,269.5C 254.617,268.944 254.117,268.611 253.5,268.5C 222.469,250.989 191.802,232.989 161.5,214.5C 161.17,198.658 161.504,182.991 162.5,167.5 Z"/></g>
<g><path style="opacity:0.997" fill="#d7dafd" d="M 161.5,214.5 C 191.802,232.989 222.469,250.989 253.5,268.5C 253.443,269.609 253.11,270.609 252.5,271.5C 234.727,282.226 216.727,292.726 198.5,303C 197.901,304.622 197.234,306.122 196.5,307.5C 196.714,305.856 196.38,304.356 195.5,303C 161.139,283.155 126.806,263.322 92.5,243.5C 111.108,231.855 130.108,220.689 149.5,210C 150.833,209.333 152.167,209.333 153.5,210C 156.032,211.765 158.699,213.265 161.5,214.5 Z"/></g>
<g><path style="opacity:0.993" fill="#acb1f1" d="M 92.5,243.5 C 126.806,263.322 161.139,283.155 195.5,303C 196.38,304.356 196.714,305.856 196.5,307.5C 196.5,321.167 196.5,334.833 196.5,348.5C 161.833,328.5 127.167,308.5 92.5,288.5C 92.5,273.5 92.5,258.5 92.5,243.5 Z"/></g>
<g><path style="opacity:1" fill="#3c4a52" d="M 98.5,255.5 C 100.655,255.372 102.655,255.872 104.5,257C 132.003,273.253 159.67,289.253 187.5,305C 189.617,306.731 191.117,308.898 192,311.5C 192.667,320.5 192.667,329.5 192,338.5C 190.867,340.211 189.367,340.711 187.5,340C 159.33,323.414 130.997,307.081 102.5,291C 99.3663,288.612 97.533,285.446 97,281.5C 96.3333,273.5 96.3333,265.5 97,257.5C 97.7172,256.956 98.2172,256.289 98.5,255.5 Z"/></g>
<g><path style="opacity:0.986" fill="#2e373d" d="M 486.5,221.5 C 486.666,226.179 486.499,230.845 486,235.5C 484.915,236.293 483.748,236.96 482.5,237.5C 481.669,244.142 481.169,250.809 481,257.5C 468.333,264.833 455.667,272.167 443,279.5C 442.673,295.983 436.507,309.816 424.5,321C 418.191,326.657 410.857,328.657 402.5,327C 401.058,326.623 400.058,325.79 399.5,324.5C 393.379,314.904 392.879,304.904 398,294.5C 404.734,279.413 415.234,269.247 429.5,264C 425.698,261.172 421.698,260.839 417.5,263C 400.2,274.081 390.367,289.915 388,310.5C 386.482,311.163 385.315,312.163 384.5,313.5C 322.194,349.322 259.861,385.155 197.5,421C 196.408,436.847 190.408,450.514 179.5,462C 174.408,466.712 168.408,469.545 161.5,470.5C 157.69,470.124 154.356,468.791 151.5,466.5C 145.988,451.811 148.154,437.811 158,424.5C 164.474,414.513 173.64,409.013 185.5,408C 182.761,406.974 180.428,405.474 178.5,403.5C 182.306,403.02 185.639,404.02 188.5,406.5C 193.065,404.059 197.398,401.392 201.5,398.5C 203.062,398.267 204.395,397.6 205.5,396.5C 219.366,388.737 233.033,380.737 246.5,372.5C 248.062,372.267 249.395,371.6 250.5,370.5C 252.368,369.737 254.035,368.737 255.5,367.5C 259.078,365.925 262.411,363.925 265.5,361.5C 262.47,358.986 259.137,356.986 255.5,355.5C 255.5,350.833 255.5,346.167 255.5,341.5C 259.167,343.5 262.833,345.5 266.5,347.5C 339.833,305.5 413.167,263.5 486.5,221.5 Z"/></g>
<g><path style="opacity:0.99" fill="#5b6f7d" d="M 399.5,324.5 C 395.577,323.205 391.91,321.372 388.5,319C 386.536,317.549 385.203,315.716 384.5,313.5C 385.315,312.163 386.482,311.163 388,310.5C 390.367,289.915 400.2,274.081 417.5,263C 421.698,260.839 425.698,261.172 429.5,264C 415.234,269.247 404.734,279.413 398,294.5C 392.879,304.904 393.379,314.904 399.5,324.5 Z"/></g>
<g><path style="opacity:1" fill="#9992a6" d="M 253.5,268.5 C 254.117,268.611 254.617,268.944 255,269.5C 255.5,293.164 255.667,316.831 255.5,340.5C 255.164,317.315 254.164,294.315 252.5,271.5C 253.11,270.609 253.443,269.609 253.5,268.5 Z"/></g>
<g><path style="opacity:1" fill="#8a8cc1" d="M 252.5,271.5 C 254.164,294.315 255.164,317.315 255.5,340.5C 255.5,340.833 255.5,341.167 255.5,341.5C 255.5,346.167 255.5,350.833 255.5,355.5C 255.5,359.5 255.5,363.5 255.5,367.5C 254.035,368.737 252.368,369.737 250.5,370.5C 250.83,352.326 250.497,334.326 249.5,316.5C 250.642,305.576 250.809,294.576 250,283.5C 248.951,282.483 247.784,282.316 246.5,283C 231.75,291.457 217.25,300.29 203,309.5C 201.189,320.812 201.022,332.145 202.5,343.5C 201.503,361.659 201.17,379.992 201.5,398.5C 197.398,401.392 193.065,404.059 188.5,406.5C 185.639,404.02 182.306,403.02 178.5,403.5C 169.043,405.76 161.209,410.76 155,418.5C 152.239,422.36 149.739,426.36 147.5,430.5C 141.5,433.833 135.5,437.167 129.5,440.5C 129.5,430.167 129.5,419.833 129.5,409.5C 152.133,389.536 174.466,369.202 196.5,348.5C 196.5,334.833 196.5,321.167 196.5,307.5C 197.234,306.122 197.901,304.622 198.5,303C 216.727,292.726 234.727,282.226 252.5,271.5 Z"/></g>
<g><path style="opacity:1" fill="#7f81b1" d="M 419.5,279.5 C 430.104,278.275 434.27,282.941 432,293.5C 429.764,302.051 424.931,308.551 417.5,313C 411.615,315.966 407.448,314.466 405,308.5C 404.506,296.154 409.34,286.487 419.5,279.5 Z"/></g>
<g><path style="opacity:1" fill="#2d363d" d="M 249.5,316.5 C 248.5,317.833 247.5,319.167 246.5,320.5C 232.333,327.747 218.666,335.747 205.5,344.5C 204.209,344.737 203.209,344.404 202.5,343.5C 201.022,332.145 201.189,320.812 203,309.5C 217.25,300.29 231.75,291.457 246.5,283C 247.784,282.316 248.951,282.483 250,283.5C 250.809,294.576 250.642,305.576 249.5,316.5 Z"/></g>
<g><path style="opacity:1" fill="#353d48" d="M 418.5,284.5 C 419.867,286.093 419.534,287.426 417.5,288.5C 417.167,288.167 416.833,287.833 416.5,287.5C 417.193,286.482 417.859,285.482 418.5,284.5 Z"/></g>
<g><path style="opacity:0.997" fill="#d7dafe" d="M 92.5,288.5 C 127.167,308.5 161.833,328.5 196.5,348.5C 174.466,369.202 152.133,389.536 129.5,409.5C 94.6354,389.235 59.6354,369.235 24.5,349.5C 46.5447,328.454 69.2113,308.121 92.5,288.5 Z"/></g>
<g><path style="opacity:1" fill="#2e373f" d="M 417.5,290.5 C 419.199,290.34 420.866,290.506 422.5,291C 424.24,296.941 422.24,301.108 416.5,303.5C 414.112,303.288 413.112,301.955 413.5,299.5C 414.03,296.11 415.363,293.11 417.5,290.5 Z"/></g>
<g><path style="opacity:1" fill="#343c46" d="M 426.5,289.5 C 429.041,290.623 429.041,291.956 426.5,293.5C 425.708,292.3 425.708,290.967 426.5,289.5 Z"/></g>
<g><path style="opacity:1" fill="#333c45" d="M 424.5,298.5 C 425.376,298.369 426.043,298.702 426.5,299.5C 423.74,303.564 423.074,303.231 424.5,298.5 Z"/></g>
<g><path style="opacity:1" fill="#363f4a" d="M 411.5,305.5 C 414.041,306.623 414.041,307.956 411.5,309.5C 410.374,308.192 410.374,306.858 411.5,305.5 Z"/></g>
<g><path style="opacity:1" fill="#39414e" d="M 418.5,304.5 C 419.434,305.568 419.768,306.901 419.5,308.5C 418.325,308.719 417.325,308.386 416.5,307.5C 417.193,306.482 417.859,305.482 418.5,304.5 Z"/></g>
<g><path style="opacity:1" fill="#a9aded" d="M 249.5,316.5 C 250.497,334.326 250.83,352.326 250.5,370.5C 249.395,371.6 248.062,372.267 246.5,372.5C 246.5,355.167 246.5,337.833 246.5,320.5C 247.5,319.167 248.5,317.833 249.5,316.5 Z"/></g>
<g><path style="opacity:1" fill="#888abe" d="M 246.5,320.5 C 246.5,337.833 246.5,355.167 246.5,372.5C 233.033,380.737 219.366,388.737 205.5,396.5C 205.5,379.167 205.5,361.833 205.5,344.5C 218.666,335.747 232.333,327.747 246.5,320.5 Z"/></g>
<g><path style="opacity:1" fill="#353d48" d="M 239.5,330.5 C 240.978,330.238 242.311,330.571 243.5,331.5C 238.751,334.625 233.917,337.625 229,340.5C 229.195,338.255 230.362,336.422 232.5,335C 235.239,333.974 237.572,332.474 239.5,330.5 Z"/></g>
<g><path style="opacity:1" fill="#333c46" d="M 242.5,334.5 C 243.525,334.897 243.692,335.563 243,336.5C 239.245,341.292 234.412,343.792 228.5,344C 233.406,341.058 238.072,337.891 242.5,334.5 Z"/></g>
<g><path style="opacity:1" fill="#a9aded" d="M 202.5,343.5 C 203.209,344.404 204.209,344.737 205.5,344.5C 205.5,361.833 205.5,379.167 205.5,396.5C 204.395,397.6 203.062,398.267 201.5,398.5C 201.17,379.992 201.503,361.659 202.5,343.5 Z"/></g>
<g><path style="opacity:0.989" fill="#abafef" d="M 24.5,349.5 C 59.6354,369.235 94.6354,389.235 129.5,409.5C 129.5,419.833 129.5,430.167 129.5,440.5C 94.6354,420.235 59.6354,400.235 24.5,380.5C 24.5,370.167 24.5,359.833 24.5,349.5 Z"/></g>
<g><path style="opacity:0.999" fill="#5b707e" d="M 255.5,355.5 C 259.137,356.986 262.47,358.986 265.5,361.5C 262.411,363.925 259.078,365.925 255.5,367.5C 255.5,363.5 255.5,359.5 255.5,355.5 Z"/></g>
<g><path style="opacity:1" fill="#d7dafe" d="M 44.5,374.5 C 39.5169,371.862 34.5169,369.195 29.5,366.5C 28.7025,366.957 28.3691,367.624 28.5,368.5C 27.9033,368.265 27.5699,367.765 27.5,367C 28.007,364.459 28.6737,361.959 29.5,359.5C 34.1667,362.167 38.8333,364.833 43.5,367.5C 44.4742,369.743 44.8076,372.076 44.5,374.5 Z"/></g>
<g><path style="opacity:1" fill="#f9f9fe" d="M 44.5,374.5 C 44.719,375.675 44.3857,376.675 43.5,377.5C 38.2708,374.726 33.2708,371.726 28.5,368.5C 28.3691,367.624 28.7025,366.957 29.5,366.5C 34.5169,369.195 39.5169,371.862 44.5,374.5 Z"/></g>
<g><path style="opacity:0.969" fill="#3c4a52" d="M 24.5,380.5 C 59.6354,400.235 94.6354,420.235 129.5,440.5C 129.5,447.167 129.5,453.833 129.5,460.5C 94.7217,440.894 60.055,421.061 25.5,401C 24.5212,394.256 24.1878,387.422 24.5,380.5 Z"/></g>
<g><path style="opacity:1" fill="#8587ba" d="M 240.5,384.5 C 231.167,389.833 221.833,395.167 212.5,400.5C 212.84,398.321 213.84,396.488 215.5,395C 222.774,390.446 230.274,386.279 238,382.5C 239.301,382.639 240.134,383.305 240.5,384.5 Z"/></g>
<g><path style="opacity:1" fill="#abaff0" d="M 240.5,384.5 C 240.784,386.415 240.451,388.081 239.5,389.5C 230.15,394.529 220.816,399.529 211.5,404.5C 211.232,402.901 211.566,401.568 212.5,400.5C 221.833,395.167 231.167,389.833 240.5,384.5 Z"/></g>
<g><path style="opacity:1" fill="#8689bc" d="M 239.5,389.5 C 239.249,391.17 238.582,392.67 237.5,394C 230.833,398 224.167,402 217.5,406C 215.011,406.941 213.011,406.441 211.5,404.5C 220.816,399.529 230.15,394.529 239.5,389.5 Z"/></g>
<g><path style="opacity:1" fill="#44515d" d="M 49.5,381.5 C 68.6029,391.552 87.2696,402.386 105.5,414C 102.725,413.626 100.058,412.626 97.5,411C 82.6635,402.081 67.6635,393.414 52.5,385C 50.9371,384.241 49.9371,383.074 49.5,381.5 Z"/></g>
<g><path style="opacity:1" fill="#45525f" d="M 49.5,371.5 C 67.6348,381.401 85.6348,391.568 103.5,402C 105.007,402.837 105.507,404.004 105,405.5C 86.9151,394.874 68.7484,384.374 50.5,374C 49.7476,373.329 49.4142,372.496 49.5,371.5 Z"/></g>
<g><path style="opacity:1" fill="#44515e" d="M 49.5,376.5 C 67.6075,386.39 85.6075,396.556 103.5,407C 105.007,407.837 105.507,409.004 105,410.5C 86.9151,399.874 68.7484,389.374 50.5,379C 49.7476,378.329 49.4142,377.496 49.5,376.5 Z"/></g>
<g><path style="opacity:0.99" fill="#5b707e" d="M 178.5,403.5 C 180.428,405.474 182.761,406.974 185.5,408C 173.64,409.013 164.474,414.513 158,424.5C 148.154,437.811 145.988,451.811 151.5,466.5C 146.053,464.123 141.386,460.79 137.5,456.5C 138.382,454.616 139.882,453.283 142,452.5C 142.272,444.745 144.105,437.412 147.5,430.5C 149.739,426.36 152.239,422.36 155,418.5C 161.209,410.76 169.043,405.76 178.5,403.5 Z"/></g>
<g><path style="opacity:1" fill="#aaaeee" d="M 60.5,405.5 C 71.5937,411.41 82.5937,417.577 93.5,424C 94.7948,427.786 94.7948,431.62 93.5,435.5C 82.8333,429.167 72.1667,422.833 61.5,416.5C 60.5108,412.893 60.1774,409.226 60.5,405.5 Z"/></g>
<g><path style="opacity:1" fill="#adb1f3" d="M 137.5,423.5 C 137.5,420.5 137.5,417.5 137.5,414.5C 142.139,411.845 146.806,409.179 151.5,406.5C 152.787,409.709 152.787,412.875 151.5,416C 146.925,418.758 142.258,421.258 137.5,423.5 Z"/></g>
<g><path style="opacity:1" fill="#d6d9fe" d="M 126.5,421.5 C 121.395,419.113 116.395,416.446 111.5,413.5C 110.614,414.325 110.281,415.325 110.5,416.5C 109.194,413.313 109.194,409.98 110.5,406.5C 115.5,409.333 120.5,412.167 125.5,415C 126.423,417.041 126.756,419.208 126.5,421.5 Z"/></g>
<g><path style="opacity:1" fill="#44515e" d="M 49.5,386.5 C 68.6029,396.552 87.2696,407.386 105.5,419C 103.402,418.968 101.402,418.301 99.5,417C 83.1667,407.5 66.8333,398 50.5,388.5C 49.7025,388.043 49.3691,387.376 49.5,386.5 Z"/></g>
<g><path style="opacity:1" fill="#f8f8fe" d="M 126.5,421.5 C 126.657,422.873 126.49,424.207 126,425.5C 120.946,422.273 115.779,419.273 110.5,416.5C 110.281,415.325 110.614,414.325 111.5,413.5C 116.395,416.446 121.395,419.113 126.5,421.5 Z"/></g>
<g><path style="opacity:1" fill="#d0d3fb" d="M 137.5,414.5 C 137.5,417.5 137.5,420.5 137.5,423.5C 136.235,424.479 134.901,425.479 133.5,426.5C 132.167,423.167 132.167,419.833 133.5,416.5C 134.86,415.82 136.193,415.153 137.5,414.5 Z"/></g>
<g><path style="opacity:1" fill="#8487ba" d="M 174.5,421.5 C 181.711,420.544 185.378,423.71 185.5,431C 184.694,442.288 179.361,450.621 169.5,456C 164.572,457.643 161.072,456.143 159,451.5C 157.561,438.044 162.728,428.044 174.5,421.5 Z"/></g>
<g><path style="opacity:1" fill="#363e4a" d="M 177.5,426.5 C 180.041,427.623 180.041,428.956 177.5,430.5C 176.374,429.192 176.374,427.858 177.5,426.5 Z"/></g>
<g><path style="opacity:1" fill="#313a42" d="M 170.5,427.5 C 173.957,427.667 174.29,428.667 171.5,430.5C 170.614,429.675 170.281,428.675 170.5,427.5 Z"/></g>
<g><path style="opacity:0.991" fill="#2d363c" d="M 147.5,430.5 C 144.105,437.412 142.272,444.745 142,452.5C 139.882,453.283 138.382,454.616 137.5,456.5C 134.605,457.399 131.938,458.733 129.5,460.5C 129.5,453.833 129.5,447.167 129.5,440.5C 135.5,437.167 141.5,433.833 147.5,430.5 Z"/></g>
<g><path style="opacity:1" fill="#313a42" d="M 171.5,432.5 C 176.328,431.84 178.161,433.84 177,438.5C 175.63,443.567 172.463,445.733 167.5,445C 166.332,440.14 167.665,435.973 171.5,432.5 Z"/></g>
<g><path style="opacity:1" fill="#353d48" d="M 179.5,432.5 C 182.957,432.667 183.29,433.667 180.5,435.5C 179.614,434.675 179.281,433.675 179.5,432.5 Z"/></g>
<g><path style="opacity:1" fill="#373f4b" d="M 165.5,433.5 C 168.041,434.623 168.041,435.956 165.5,437.5C 164.374,436.192 164.374,434.858 165.5,433.5 Z"/></g>
<g><path style="opacity:1" fill="#353d48" d="M 177.5,440.5 C 180.041,441.623 180.041,442.956 177.5,444.5C 176.374,443.192 176.374,441.858 177.5,440.5 Z"/></g>
<g><path style="opacity:1" fill="#38404d" d="M 162.5,442.5 C 165.041,443.623 165.041,444.956 162.5,446.5C 161.374,445.192 161.374,443.858 162.5,442.5 Z"/></g>
<g><path style="opacity:1" fill="#3b4351" d="M 165.5,447.5 C 168.041,448.623 168.041,449.956 165.5,451.5C 164.374,450.192 164.374,448.858 165.5,447.5 Z"/></g>
<g><path style="opacity:1" fill="#353d48" d="M 171.5,447.5 C 173.807,448.405 173.807,449.738 171.5,451.5C 170.374,450.192 170.374,448.858 171.5,447.5 Z"/></g>
</svg>
