<?xml version="1.0" encoding="UTF-8"?>
<!DOCTYPE svg PUBLIC "-//W3C//DTD SVG 1.1//EN" "http://www.w3.org/Graphics/SVG/1.1/DTD/svg11.dtd">
<svg xmlns="http://www.w3.org/2000/svg" version="1.1" width="512px" height="512px" style="shape-rendering:geometricPrecision; text-rendering:geometricPrecision; image-rendering:optimizeQuality; fill-rule:evenodd; clip-rule:evenodd" xmlns:xlink="http://www.w3.org/1999/xlink">
<g><path style="opacity:0.977" fill="#341808" d="M 351.5,41.5 C 350.173,40.1999 348.84,38.8665 347.5,37.5C 344.681,40.9096 341.014,42.7429 336.5,43C 330.389,43.5636 324.389,43.2303 318.5,42C 317.789,43.2547 316.956,44.4214 316,45.5C 314.413,44.273 313.079,44.6063 312,46.5C 311.501,50.4862 311.334,54.4862 311.5,58.5C 303.242,47.8152 302.409,36.4819 309,24.5C 314.601,16.7814 322.101,13.6147 331.5,15C 348.256,16.3756 354.922,25.2089 351.5,41.5 Z"/></g>
<g><path style="opacity:0.984" fill="#fdd5b6" d="M 351.5,41.5 C 352.233,51.8093 350.9,61.8093 347.5,71.5C 346.662,71.8417 346.328,72.5084 346.5,73.5C 345.883,73.3893 345.383,73.056 345,72.5C 341.319,75.3597 337.152,76.1931 332.5,75C 327.459,73.1083 322.792,70.6083 318.5,67.5C 315.815,64.8103 313.482,61.8103 311.5,58.5C 311.334,54.4862 311.501,50.4862 312,46.5C 313.079,44.6063 314.413,44.273 316,45.5C 316.956,44.4214 317.789,43.2547 318.5,42C 324.389,43.2303 330.389,43.5636 336.5,43C 341.014,42.7429 344.681,40.9096 347.5,37.5C 348.84,38.8665 350.173,40.1999 351.5,41.5 Z"/></g>
<g><path style="opacity:0.993" fill="#ebc5a4" d="M 318.5,67.5 C 322.792,70.6083 327.459,73.1083 332.5,75C 337.152,76.1931 341.319,75.3597 345,72.5C 345.383,73.056 345.883,73.3893 346.5,73.5C 346.228,79.8767 343.895,85.3767 339.5,90C 340.056,90.3826 340.389,90.8826 340.5,91.5C 339.833,91.5 339.167,91.5 338.5,91.5C 332.103,88.7974 326.103,85.2974 320.5,81C 319.242,79.2591 318.242,77.4258 317.5,75.5C 318.092,72.8728 318.425,70.2062 318.5,67.5 Z"/></g>
<g><path style="opacity:0.994" fill="#b2b2b2" d="M 370.5,74.5 C 370.652,118.835 370.985,163.168 371.5,207.5C 371.595,210.692 370.929,213.692 369.5,216.5C 367.167,218.5 364.833,220.5 362.5,222.5C 362.59,210.705 360.424,199.372 356,188.5C 354.223,186.21 352.056,184.543 349.5,183.5C 345.908,181.311 341.908,180.311 337.5,180.5C 334.473,180.287 331.807,180.953 329.5,182.5C 328.395,181.4 327.062,180.733 325.5,180.5C 329.997,170.708 331.664,160.375 330.5,149.5C 333.055,141.584 331.389,134.751 325.5,129C 319.303,126.466 312.97,124.633 306.5,123.5C 302.5,123.503 298.833,124.503 295.5,126.5C 296.789,115.814 294.122,106.314 287.5,98C 285.655,96.872 283.655,96.372 281.5,96.5C 282.29,95.2058 283.29,94.0391 284.5,93C 293.96,88.2679 303.627,84.1012 313.5,80.5C 314.167,81.5 314.833,82.5 315.5,83.5C 314.876,83.9169 314.543,84.5836 314.5,85.5C 316.105,95.8177 318.772,105.818 322.5,115.5C 324.409,114.652 326.409,114.318 328.5,114.5C 328.163,118.308 328.663,121.974 330,125.5C 332,128.167 334,130.833 336,133.5C 338.436,136.447 341.269,138.78 344.5,140.5C 345.167,141.167 345.833,141.833 346.5,142.5C 349.389,139.744 351.556,136.411 353,132.5C 356.015,122.858 358.515,113.191 360.5,103.5C 358.068,94.8623 355.068,86.529 351.5,78.5C 350.715,76.6264 350.048,74.6264 349.5,72.5C 356.844,70.7962 363.844,71.4629 370.5,74.5 Z"/></g>
<g><path style="opacity:0.966" fill="#c8c8c8" d="M 370.5,74.5 C 373.764,75.9274 376.264,78.2608 378,81.5C 380.849,89.5905 382.515,97.9239 383,106.5C 383.667,130.167 383.667,153.833 383,177.5C 382.665,185.529 381.998,193.529 381,201.5C 380.34,203.324 379.173,204.657 377.5,205.5C 375.579,206.363 373.579,207.029 371.5,207.5C 370.985,163.168 370.652,118.835 370.5,74.5 Z"/></g>
<g><path style="opacity:1" fill="#999898" d="M 351.5,78.5 C 355.068,86.529 358.068,94.8623 360.5,103.5C 358.515,113.191 356.015,122.858 353,132.5C 351.556,136.411 349.389,139.744 346.5,142.5C 347.761,138.626 348.428,134.626 348.5,130.5C 351.08,113.412 352.08,96.079 351.5,78.5 Z"/></g>
<g><path style="opacity:1" fill="#9a9a9a" d="M 315.5,83.5 C 323.582,99.333 331.916,115 340.5,130.5C 341.786,133.756 343.12,137.089 344.5,140.5C 341.269,138.78 338.436,136.447 336,133.5C 334,130.833 332,128.167 330,125.5C 328.663,121.974 328.163,118.308 328.5,114.5C 326.409,114.318 324.409,114.652 322.5,115.5C 318.772,105.818 316.105,95.8177 314.5,85.5C 314.543,84.5836 314.876,83.9169 315.5,83.5 Z"/></g>
<g><path style="opacity:1" fill="#f8f7f6" d="M 317.5,75.5 C 318.242,77.4258 319.242,79.2591 320.5,81C 326.103,85.2974 332.103,88.7974 338.5,91.5C 337.847,92.8068 337.18,94.1401 336.5,95.5C 338.994,106.942 340.327,118.608 340.5,130.5C 331.916,115 323.582,99.333 315.5,83.5C 314.833,82.5 314.167,81.5 313.5,80.5C 314.864,78.8089 316.197,77.1423 317.5,75.5 Z"/></g>
<g><path style="opacity:1" fill="#f7f6f6" d="M 347.5,71.5 C 347.842,72.3382 348.508,72.6716 349.5,72.5C 350.048,74.6264 350.715,76.6264 351.5,78.5C 352.08,96.079 351.08,113.412 348.5,130.5C 347.211,119.219 345.211,108.053 342.5,97C 345.171,94.1547 344.505,92.3214 340.5,91.5C 340.389,90.8826 340.056,90.3826 339.5,90C 343.895,85.3767 346.228,79.8767 346.5,73.5C 346.328,72.5084 346.662,71.8417 347.5,71.5 Z"/></g>
<g><path style="opacity:1" fill="#751610" d="M 338.5,91.5 C 339.167,91.5 339.833,91.5 340.5,91.5C 344.505,92.3214 345.171,94.1547 342.5,97C 345.211,108.053 347.211,119.219 348.5,130.5C 348.428,134.626 347.761,138.626 346.5,142.5C 345.833,141.833 345.167,141.167 344.5,140.5C 343.12,137.089 341.786,133.756 340.5,130.5C 340.327,118.608 338.994,106.942 336.5,95.5C 337.18,94.1401 337.847,92.8068 338.5,91.5 Z"/></g>
<g><path style="opacity:0.974" fill="#c7c7c7" d="M 281.5,96.5 C 283.655,96.372 285.655,96.872 287.5,98C 294.122,106.314 296.789,115.814 295.5,126.5C 282.374,138.632 281.041,151.965 291.5,166.5C 293.482,169.81 295.815,172.81 298.5,175.5C 298.689,179.037 298.023,182.37 296.5,185.5C 295.5,186.833 294.5,188.167 293.5,189.5C 286.833,192.167 280.167,194.833 273.5,197.5C 272.048,171.491 272.214,145.491 274,119.5C 274.309,112.623 275.642,105.957 278,99.5C 279.039,98.2899 280.206,97.2899 281.5,96.5 Z"/></g>
<g><path style="opacity:0.977" fill="#c09042" d="M 205.5,126.5 C 204.571,125.064 203.405,123.731 202,122.5C 200.048,124.894 197.548,126.394 194.5,127C 187.447,127.55 180.447,127.55 173.5,127C 172.299,127.903 171.465,129.069 171,130.5C 169.062,129.14 167.396,129.473 166,131.5C 165.83,135.493 165.996,139.493 166.5,143.5C 157.528,132.36 156.695,120.693 164,108.5C 169.78,101.129 177.28,98.2955 186.5,100C 192.305,100.823 197.639,102.823 202.5,106C 204.041,107.579 205.208,109.413 206,111.5C 206.816,116.684 206.65,121.684 205.5,126.5 Z"/></g>
<g><path style="opacity:0.989" fill="#fed6b6" d="M 205.5,126.5 C 206.866,136.876 205.533,146.876 201.5,156.5C 201.167,156.5 200.833,156.5 200.5,156.5C 197.262,160.088 193.262,161.255 188.5,160C 182.926,158.546 177.926,156.046 173.5,152.5C 170.453,150.082 168.12,147.082 166.5,143.5C 165.996,139.493 165.83,135.493 166,131.5C 167.396,129.473 169.062,129.14 171,130.5C 171.465,129.069 172.299,127.903 173.5,127C 180.447,127.55 187.447,127.55 194.5,127C 197.548,126.394 200.048,124.894 202,122.5C 203.405,123.731 204.571,125.064 205.5,126.5 Z"/></g>
<g><path style="opacity:1" fill="#8c734b" d="M 330.5,149.5 C 329.288,148.77 328.288,147.77 327.5,146.5C 325.287,148.774 322.621,150.274 319.5,151C 312.137,151.467 304.803,151.467 297.5,151C 295.585,152.855 293.418,154.355 291,155.5C 290.721,159.17 290.888,162.837 291.5,166.5C 281.041,151.965 282.374,138.632 295.5,126.5C 298.833,124.503 302.5,123.503 306.5,123.5C 312.97,124.633 319.303,126.466 325.5,129C 331.389,134.751 333.055,141.584 330.5,149.5 Z"/></g>
<g><path style="opacity:1" fill="#fdd6b7" d="M 330.5,149.5 C 331.664,160.375 329.997,170.708 325.5,180.5C 320.957,183.391 315.957,184.224 310.5,183C 305.967,181.24 301.967,178.74 298.5,175.5C 295.815,172.81 293.482,169.81 291.5,166.5C 290.888,162.837 290.721,159.17 291,155.5C 293.418,154.355 295.585,152.855 297.5,151C 304.803,151.467 312.137,151.467 319.5,151C 322.621,150.274 325.287,148.774 327.5,146.5C 328.288,147.77 329.288,148.77 330.5,149.5 Z"/></g>
<g><path style="opacity:0.995" fill="#ecc5a4" d="M 173.5,152.5 C 177.926,156.046 182.926,158.546 188.5,160C 193.262,161.255 197.262,160.088 200.5,156.5C 200.902,163.626 198.902,169.959 194.5,175.5C 194.167,175.5 193.833,175.5 193.5,175.5C 184.812,172.83 177.478,168.164 171.5,161.5C 172.167,158.5 172.833,155.5 173.5,152.5 Z"/></g>
<g><path style="opacity:0.998" fill="#283a57" d="M 224.5,158.5 C 224.913,203.12 225.58,247.787 226.5,292.5C 225.629,295.003 224.963,297.67 224.5,300.5C 220.047,305.765 214.547,309.765 208,312.5C 207.333,311.833 206.667,311.167 206,310.5C 204.347,305.582 203.014,300.582 202,295.5C 200.879,300.855 199.712,306.188 198.5,311.5C 197.009,314.091 194.675,315.091 191.5,314.5C 182.251,315.156 173.251,314.156 164.5,311.5C 163.391,311.443 162.391,311.11 161.5,310.5C 161.321,277.322 158.821,244.322 154,211.5C 153.138,209.913 152.471,208.246 152,206.5C 151.821,210.025 151.321,213.359 150.5,216.5C 151.26,207.227 150.093,198.227 147,189.5C 145.155,183.803 141.322,181.136 135.5,181.5C 136.716,179.549 138.382,178.049 140.5,177C 149.325,172.672 158.325,168.839 167.5,165.5C 169.316,167.118 170.649,169.118 171.5,171.5C 170.414,171.62 169.747,172.287 169.5,173.5C 171.63,182.153 173.63,190.82 175.5,199.5C 177.833,199.5 180.167,199.5 182.5,199.5C 182.336,202.187 182.503,204.854 183,207.5C 187.245,214.913 192.745,221.246 199.5,226.5C 200.167,226.5 200.833,226.5 201.5,226.5C 203.86,224.287 205.694,221.621 207,218.5C 208.47,213.757 210.136,209.091 212,204.5C 212.684,201.62 212.517,198.787 211.5,196C 212.97,193.558 214.304,191.058 215.5,188.5C 212.668,180.512 209.835,172.512 207,164.5C 206.828,170.681 206.328,176.681 205.5,182.5C 205.802,174.082 205.469,165.748 204.5,157.5C 211.295,155.956 217.961,156.29 224.5,158.5 Z"/></g>
<g><path style="opacity:0.981" fill="#394964" d="M 224.5,158.5 C 228.508,160.342 231.341,163.342 233,167.5C 236.069,176.915 237.736,186.582 238,196.5C 238.958,226.205 238.292,255.872 236,285.5C 235.003,287.323 233.836,288.99 232.5,290.5C 230.5,291.167 228.5,291.833 226.5,292.5C 225.58,247.787 224.913,203.12 224.5,158.5 Z"/></g>
<g><path style="opacity:1" fill="#142847" d="M 201.5,226.5 C 202.114,222.865 202.448,219.198 202.5,215.5C 204.999,204.782 205.999,193.782 205.5,182.5C 206.328,176.681 206.828,170.681 207,164.5C 209.835,172.512 212.668,180.512 215.5,188.5C 214.304,191.058 212.97,193.558 211.5,196C 212.517,198.787 212.684,201.62 212,204.5C 210.136,209.091 208.47,213.757 207,218.5C 205.694,221.621 203.86,224.287 201.5,226.5 Z"/></g>
<g><path style="opacity:1" fill="#132747" d="M 171.5,171.5 C 179.771,186.376 187.771,201.376 195.5,216.5C 196.833,219.833 198.167,223.167 199.5,226.5C 192.745,221.246 187.245,214.913 183,207.5C 182.503,204.854 182.336,202.187 182.5,199.5C 180.167,199.5 177.833,199.5 175.5,199.5C 173.63,190.82 171.63,182.153 169.5,173.5C 169.747,172.287 170.414,171.62 171.5,171.5 Z"/></g>
<g><path style="opacity:1" fill="#f3f4f3" d="M 200.5,156.5 C 200.833,156.5 201.167,156.5 201.5,156.5C 202.609,156.557 203.609,156.89 204.5,157.5C 205.469,165.748 205.802,174.082 205.5,182.5C 205.999,193.782 204.999,204.782 202.5,215.5C 201.615,204.736 199.948,194.07 197.5,183.5C 200.027,179.84 199.027,177.173 194.5,175.5C 198.902,169.959 200.902,163.626 200.5,156.5 Z"/></g>
<g><path style="opacity:1" fill="#f2f3f3" d="M 171.5,161.5 C 177.478,168.164 184.812,172.83 193.5,175.5C 192.639,177.386 191.639,179.22 190.5,181C 191.448,181.483 192.448,181.649 193.5,181.5C 193.86,193.186 194.527,204.852 195.5,216.5C 187.771,201.376 179.771,186.376 171.5,171.5C 170.649,169.118 169.316,167.118 167.5,165.5C 168.5,163.833 169.833,162.5 171.5,161.5 Z"/></g>
<g><path style="opacity:1" fill="#0b450b" d="M 193.5,175.5 C 193.833,175.5 194.167,175.5 194.5,175.5C 199.027,177.173 200.027,179.84 197.5,183.5C 199.948,194.07 201.615,204.736 202.5,215.5C 202.448,219.198 202.114,222.865 201.5,226.5C 200.833,226.5 200.167,226.5 199.5,226.5C 198.167,223.167 196.833,219.833 195.5,216.5C 194.527,204.852 193.86,193.186 193.5,181.5C 192.448,181.649 191.448,181.483 190.5,181C 191.639,179.22 192.639,177.386 193.5,175.5 Z"/></g>
<g><path style="opacity:1" fill="#ecc5a4" d="M 298.5,175.5 C 301.967,178.74 305.967,181.24 310.5,183C 315.957,184.224 320.957,183.391 325.5,180.5C 325.905,187.184 323.905,193.017 319.5,198C 315.88,198.841 312.546,198.174 309.5,196C 304.689,193.015 300.356,189.515 296.5,185.5C 298.023,182.37 298.689,179.037 298.5,175.5 Z"/></g>
<g><path style="opacity:0.992" fill="#384964" d="M 135.5,181.5 C 141.322,181.136 145.155,183.803 147,189.5C 150.093,198.227 151.26,207.227 150.5,216.5C 148.889,246.55 149.555,276.55 152.5,306.5C 152.167,307.167 151.833,307.833 151.5,308.5C 145.905,311.738 139.905,312.405 133.5,310.5C 132.878,309.373 132.045,308.373 131,307.5C 129.58,297.545 128.58,287.545 128,277.5C 127.333,255.5 127.333,233.5 128,211.5C 128.439,203.759 129.439,196.092 131,188.5C 132.026,185.761 133.526,183.428 135.5,181.5 Z"/></g>
<g><path style="opacity:0.999" fill="#272727" d="M 349.5,183.5 C 349.93,227.368 350.597,271.368 351.5,315.5C 350.752,318.905 349.752,322.238 348.5,325.5C 345.665,328.165 342.665,330.665 339.5,333C 337.086,334.885 334.419,335.552 331.5,335C 329.309,329.036 327.809,322.87 327,316.5C 326.261,322.268 325.095,327.934 323.5,333.5C 323.863,334.183 324.196,334.85 324.5,335.5C 321.983,336.84 319.316,337.84 316.5,338.5C 307.339,338.73 298.339,337.73 289.5,335.5C 288.791,334.596 287.791,334.263 286.5,334.5C 286.982,300.932 284.482,267.599 279,234.5C 278.33,231.826 277.163,229.493 275.5,227.5C 274.82,219.312 271.82,212.146 266.5,206C 264.527,205.505 262.527,205.338 260.5,205.5C 263.79,201.224 268.123,198.558 273.5,197.5C 280.167,194.833 286.833,192.167 293.5,189.5C 302.744,206.697 311.744,223.363 320.5,239.5C 324.754,254.408 327.088,254.075 327.5,238.5C 328.222,238.082 328.722,237.416 329,236.5C 330.649,218.353 330.815,200.353 329.5,182.5C 331.807,180.953 334.473,180.287 337.5,180.5C 341.908,180.311 345.908,181.311 349.5,183.5 Z"/></g>
<g><path style="opacity:1" fill="#2e2e2e" d="M 349.5,183.5 C 352.056,184.543 354.223,186.21 356,188.5C 360.424,199.372 362.59,210.705 362.5,222.5C 363.038,251.878 362.204,281.211 360,310.5C 358.955,311.373 358.122,312.373 357.5,313.5C 355.685,314.63 353.685,315.296 351.5,315.5C 350.597,271.368 349.93,227.368 349.5,183.5 Z"/></g>
<g><path style="opacity:1" fill="#f2f2f2" d="M 325.5,180.5 C 327.062,180.733 328.395,181.4 329.5,182.5C 330.815,200.353 330.649,218.353 329,236.5C 328.722,237.416 328.222,238.082 327.5,238.5C 326.678,227.884 325.011,217.384 322.5,207C 324.525,203.237 323.525,200.737 319.5,199.5C 317.457,200.579 316.124,202.246 315.5,204.5C 316.325,205.386 317.325,205.719 318.5,205.5C 318.745,216.86 319.412,228.193 320.5,239.5C 311.744,223.363 302.744,206.697 293.5,189.5C 294.5,188.167 295.5,186.833 296.5,185.5C 300.356,189.515 304.689,193.015 309.5,196C 312.546,198.174 315.88,198.841 319.5,198C 323.905,193.017 325.905,187.184 325.5,180.5 Z"/></g>
<g><path style="opacity:1" fill="#0c0d0d" d="M 327.5,238.5 C 327.088,254.075 324.754,254.408 320.5,239.5C 319.412,228.193 318.745,216.86 318.5,205.5C 317.325,205.719 316.325,205.386 315.5,204.5C 316.124,202.246 317.457,200.579 319.5,199.5C 323.525,200.737 324.525,203.237 322.5,207C 325.011,217.384 326.678,227.884 327.5,238.5 Z"/></g>
<g><path style="opacity:0.983" fill="#2e2e2d" d="M 260.5,205.5 C 262.527,205.338 264.527,205.505 266.5,206C 271.82,212.146 274.82,219.312 275.5,227.5C 273.539,260.396 274.206,293.229 277.5,326C 277.083,328.498 276.749,330.998 276.5,333.5C 273.072,334.474 269.572,335.141 266,335.5C 263.225,335.591 260.725,334.924 258.5,333.5C 256.059,331.925 254.893,329.592 255,326.5C 250.862,292.197 250.529,257.863 254,223.5C 254.368,218.696 255.368,214.03 257,209.5C 257.66,207.676 258.827,206.343 260.5,205.5 Z"/></g>
<g><path style="opacity:0.916" fill="#fed7b7" d="M 377.5,205.5 C 378.699,212.609 377.699,219.442 374.5,226C 372.735,226.64 371.068,226.473 369.5,225.5C 369.5,222.5 369.5,219.5 369.5,216.5C 370.929,213.692 371.595,210.692 371.5,207.5C 373.579,207.029 375.579,206.363 377.5,205.5 Z"/></g>
<g><path style="opacity:1" fill="#1a2e4d" d="M 161.5,310.5 C 161.44,311.043 161.107,311.376 160.5,311.5C 157.805,309.822 155.139,308.156 152.5,306.5C 149.555,276.55 148.889,246.55 150.5,216.5C 151.321,213.359 151.821,210.025 152,206.5C 152.471,208.246 153.138,209.913 154,211.5C 158.821,244.322 161.321,277.322 161.5,310.5 Z"/></g>
<g><path style="opacity:0.968" fill="#2e314e" d="M 369.5,216.5 C 369.5,219.5 369.5,222.5 369.5,225.5C 369.732,262.213 368.565,298.88 366,335.5C 365.648,337.247 365.148,338.914 364.5,340.5C 360.311,345.13 354.978,347.463 348.5,347.5C 348.5,342.833 348.5,338.167 348.5,333.5C 352.654,335.495 355.154,334.161 356,329.5C 356.977,324.207 357.477,318.874 357.5,313.5C 358.122,312.373 358.955,311.373 360,310.5C 362.204,281.211 363.038,251.878 362.5,222.5C 364.833,220.5 367.167,218.5 369.5,216.5 Z"/></g>
<g><path style="opacity:0.943" fill="#fbd4b7" d="M 232.5,290.5 C 232.318,292.591 232.652,294.591 233.5,296.5C 231.938,299.974 231.105,303.64 231,307.5C 229.899,311.136 227.732,312.136 224.5,310.5C 224.5,307.167 224.5,303.833 224.5,300.5C 224.963,297.67 225.629,295.003 226.5,292.5C 228.5,291.833 230.5,291.167 232.5,290.5 Z"/></g>
<g><path style="opacity:0.987" fill="#2e3130" d="M 224.5,300.5 C 224.5,303.833 224.5,307.167 224.5,310.5C 224.209,341.18 223.376,371.847 222,402.5C 221.733,410.253 220.9,417.92 219.5,425.5C 212.434,432.071 204.101,434.238 194.5,432C 192.942,431.79 191.609,431.29 190.5,430.5C 195.339,395.48 198.339,360.146 199.5,324.5C 199.499,319.987 199.166,315.653 198.5,311.5C 199.712,306.188 200.879,300.855 202,295.5C 203.014,300.582 204.347,305.582 206,310.5C 206.667,311.167 207.333,311.833 208,312.5C 214.547,309.765 220.047,305.765 224.5,300.5 Z"/></g>
<g><path style="opacity:1" fill="#1d201f" d="M 152.5,306.5 C 155.139,308.156 157.805,309.822 160.5,311.5C 161.107,311.376 161.44,311.043 161.5,310.5C 162.391,311.11 163.391,311.443 164.5,311.5C 164.26,356.528 163.093,401.528 161,446.5C 160.809,448.708 160.309,450.708 159.5,452.5C 157.821,452.108 156.154,451.608 154.5,451C 153.468,449.373 152.134,448.207 150.5,447.5C 150.923,446.735 151.257,445.902 151.5,445C 148.916,407.563 147.583,370.063 147.5,332.5C 149.41,331.025 150.576,329.025 151,326.5C 151.499,320.509 151.666,314.509 151.5,308.5C 151.833,307.833 152.167,307.167 152.5,306.5 Z"/></g>
<g><path style="opacity:0.968" fill="#f9d2b4" d="M 151.5,308.5 C 151.666,314.509 151.499,320.509 151,326.5C 150.576,329.025 149.41,331.025 147.5,332.5C 140.794,333.665 136.961,330.665 136,323.5C 135.083,319.138 134.249,314.805 133.5,310.5C 139.905,312.405 145.905,311.738 151.5,308.5 Z"/></g>
<g><path style="opacity:0.993" fill="#2d302f" d="M 164.5,311.5 C 173.251,314.156 182.251,315.156 191.5,314.5C 190.495,338.932 188.828,363.266 186.5,387.5C 185.419,406.973 183.419,426.307 180.5,445.5C 179.752,449.417 177.418,451.917 173.5,453C 168.648,453.815 163.981,453.648 159.5,452.5C 160.309,450.708 160.809,448.708 161,446.5C 163.093,401.528 164.26,356.528 164.5,311.5 Z"/></g>
<g><path style="opacity:0.983" fill="#1d201f" d="M 198.5,311.5 C 199.166,315.653 199.499,319.987 199.5,324.5C 198.339,360.146 195.339,395.48 190.5,430.5C 189.833,430.5 189.167,430.5 188.5,430.5C 187.833,416.167 187.167,401.833 186.5,387.5C 188.828,363.266 190.495,338.932 191.5,314.5C 194.675,315.091 197.009,314.091 198.5,311.5 Z"/></g>
<g><path style="opacity:1" fill="#ebc7ac" d="M 357.5,313.5 C 357.477,318.874 356.977,324.207 356,329.5C 355.154,334.161 352.654,335.495 348.5,333.5C 348.5,330.833 348.5,328.167 348.5,325.5C 349.752,322.238 350.752,318.905 351.5,315.5C 353.685,315.296 355.685,314.63 357.5,313.5 Z"/></g>
<g><path style="opacity:0.993" fill="#2d302f" d="M 348.5,325.5 C 348.5,328.167 348.5,330.833 348.5,333.5C 348.5,338.167 348.5,342.833 348.5,347.5C 348.181,352.363 348.514,357.03 349.5,361.5C 348.612,382.476 347.778,403.476 347,424.5C 346.762,432.587 345.928,440.587 344.5,448.5C 339.03,454.166 332.197,456.832 324,456.5C 320.85,456.64 318.017,455.973 315.5,454.5C 321.073,415.175 324.073,375.508 324.5,335.5C 324.196,334.85 323.863,334.183 323.5,333.5C 325.095,327.934 326.261,322.268 327,316.5C 327.809,322.87 329.309,329.036 331.5,335C 334.419,335.552 337.086,334.885 339.5,333C 342.665,330.665 345.665,328.165 348.5,325.5 Z"/></g>
<g><path style="opacity:1" fill="#1e201f" d="M 275.5,227.5 C 277.163,229.493 278.33,231.826 279,234.5C 284.482,267.599 286.982,300.932 286.5,334.5C 287.791,334.263 288.791,334.596 289.5,335.5C 288.702,382.525 287.369,429.525 285.5,476.5C 280.716,476.293 277.716,473.96 276.5,469.5C 273.813,431.941 272.48,394.274 272.5,356.5C 273.504,355.317 274.338,353.984 275,352.5C 275.897,346.194 276.397,339.861 276.5,333.5C 276.749,330.998 277.083,328.498 277.5,326C 274.206,293.229 273.539,260.396 275.5,227.5 Z"/></g>
<g><path style="opacity:0.973" fill="#fcd5b6" d="M 258.5,333.5 C 260.725,334.924 263.225,335.591 266,335.5C 269.572,335.141 273.072,334.474 276.5,333.5C 276.397,339.861 275.897,346.194 275,352.5C 274.338,353.984 273.504,355.317 272.5,356.5C 265.618,357.455 261.784,354.455 261,347.5C 259.933,342.864 259.1,338.198 258.5,333.5 Z"/></g>
<g><path style="opacity:0.994" fill="#2d302f" d="M 289.5,335.5 C 298.339,337.73 307.339,338.73 316.5,338.5C 315.167,362.167 313.833,385.833 312.5,409.5C 310.441,429.406 308.107,449.406 305.5,469.5C 300.872,477.249 294.206,479.582 285.5,476.5C 287.369,429.525 288.702,382.525 289.5,335.5 Z"/></g>
<g><path style="opacity:0.986" fill="#1d201f" d="M 324.5,335.5 C 324.073,375.508 321.073,415.175 315.5,454.5C 314.833,454.5 314.167,454.5 313.5,454.5C 312.517,439.578 312.184,424.578 312.5,409.5C 313.833,385.833 315.167,362.167 316.5,338.5C 319.316,337.84 321.983,336.84 324.5,335.5 Z"/></g>
<g><path style="opacity:0.981" fill="#1b1b1b" d="M 364.5,340.5 C 370.049,343.875 375.216,347.875 380,352.5C 383.002,358.993 381.169,363.493 374.5,366C 365.477,368.496 357.144,366.996 349.5,361.5C 348.514,357.03 348.181,352.363 348.5,347.5C 354.978,347.463 360.311,345.13 364.5,340.5 Z"/></g>
<g><path style="opacity:0.989" fill="#423420" d="M 219.5,425.5 C 224.534,428.782 229.368,432.449 234,436.5C 235.202,438.677 235.702,441.011 235.5,443.5C 230.698,448.714 224.698,450.881 217.5,450C 207.552,446.185 198.218,441.352 189.5,435.5C 189.371,433.784 189.038,432.117 188.5,430.5C 189.167,430.5 189.833,430.5 190.5,430.5C 191.609,431.29 192.942,431.79 194.5,432C 204.101,434.238 212.434,432.071 219.5,425.5 Z"/></g>
<g><path style="opacity:0.978" fill="#423420" d="M 180.5,445.5 C 186.076,448.902 191.243,452.902 196,457.5C 197.128,459.345 197.628,461.345 197.5,463.5C 192.252,469.527 185.585,471.693 177.5,470C 168.198,466.174 159.532,461.34 151.5,455.5C 150.527,453.052 150.194,450.385 150.5,447.5C 152.134,448.207 153.468,449.373 154.5,451C 156.154,451.608 157.821,452.108 159.5,452.5C 163.981,453.648 168.648,453.815 173.5,453C 177.418,451.917 179.752,449.417 180.5,445.5 Z"/></g>
<g><path style="opacity:0.703" fill="#0b0a09" d="M 189.5,435.5 C 198.218,441.352 207.552,446.185 217.5,450C 224.698,450.881 230.698,448.714 235.5,443.5C 235.607,445.903 234.607,447.736 232.5,449C 228.148,451.589 223.481,452.589 218.5,452C 207.151,449.005 197.484,443.505 189.5,435.5 Z"/></g>
<g><path style="opacity:0.986" fill="#423420" d="M 344.5,448.5 C 344.908,449.643 345.575,450.643 346.5,451.5C 351.085,453.919 355.252,456.919 359,460.5C 360.202,462.677 360.702,465.011 360.5,467.5C 354.607,473.092 347.607,474.926 339.5,473C 330.484,469.165 322.151,464.332 314.5,458.5C 313.766,457.292 313.433,455.959 313.5,454.5C 314.167,454.5 314.833,454.5 315.5,454.5C 318.017,455.973 320.85,456.64 324,456.5C 332.197,456.832 339.03,454.166 344.5,448.5 Z"/></g>
<g><path style="opacity:0.709" fill="#0c0b0a" d="M 151.5,455.5 C 159.532,461.34 168.198,466.174 177.5,470C 185.585,471.693 192.252,469.527 197.5,463.5C 196.857,466.988 194.857,469.488 191.5,471C 186.924,472.476 182.257,472.81 177.5,472C 168.56,468.532 160.227,464.032 152.5,458.5C 151.614,457.675 151.281,456.675 151.5,455.5 Z"/></g>
<g><path style="opacity:0.725" fill="#0d0c0a" d="M 314.5,458.5 C 322.151,464.332 330.484,469.165 339.5,473C 347.607,474.926 354.607,473.092 360.5,467.5C 359.448,471.557 356.782,474.057 352.5,475C 348.167,475.667 343.833,475.667 339.5,475C 330.963,471.149 322.797,466.649 315,461.5C 314.517,460.552 314.351,459.552 314.5,458.5 Z"/></g>
<g><path style="opacity:0.99" fill="#423420" d="M 276.5,469.5 C 277.716,473.96 280.716,476.293 285.5,476.5C 294.206,479.582 300.872,477.249 305.5,469.5C 311.605,472.981 317.105,477.314 322,482.5C 322.494,484.134 322.66,485.801 322.5,487.5C 317.487,493.179 311.154,495.345 303.5,494C 293.868,490.186 284.868,485.353 276.5,479.5C 275.167,476.167 275.167,472.833 276.5,469.5 Z"/></g>
<g><path style="opacity:0.699" fill="#0c0b09" d="M 276.5,479.5 C 284.868,485.353 293.868,490.186 303.5,494C 311.154,495.345 317.487,493.179 322.5,487.5C 321.789,491.382 319.456,493.882 315.5,495C 311.594,496.434 307.594,496.767 303.5,496C 296.105,493.469 289.105,490.136 282.5,486C 279.591,484.594 277.591,482.428 276.5,479.5 Z"/></g>
</svg>
