<?xml version="1.0" encoding="UTF-8"?>
<!DOCTYPE svg PUBLIC "-//W3C//DTD SVG 1.1//EN" "http://www.w3.org/Graphics/SVG/1.1/DTD/svg11.dtd">
<svg xmlns="http://www.w3.org/2000/svg" version="1.1" width="512px" height="512px" style="shape-rendering:geometricPrecision; text-rendering:geometricPrecision; image-rendering:optimizeQuality; fill-rule:evenodd; clip-rule:evenodd" xmlns:xlink="http://www.w3.org/1999/xlink">
<g><path style="opacity:0.992" fill="#dddddd" d="M 284.5,112.5 C 316.024,110.795 345.691,117.795 373.5,133.5C 373.5,157.5 373.5,181.5 373.5,205.5C 367.707,206.974 361.707,207.474 355.5,207C 350.271,203.887 344.938,201.053 339.5,198.5C 337.938,198.267 336.605,197.6 335.5,196.5C 329.738,191.775 323.404,187.775 316.5,184.5C 315.702,184.043 315.369,183.376 315.5,182.5C 318.587,180.579 320.754,177.913 322,174.5C 323.715,165.79 322.049,157.79 317,150.5C 313.49,145.471 309.99,140.471 306.5,135.5C 299.868,127.201 292.535,119.534 284.5,112.5 Z"/></g>
<g><path style="opacity:0.979" fill="#b2b2b2" d="M 284.5,112.5 C 292.535,119.534 299.868,127.201 306.5,135.5C 305.833,147.5 305.167,159.5 304.5,171.5C 298.198,164.365 291.364,157.699 284,151.5C 282.468,138.349 282.635,125.349 284.5,112.5 Z"/></g>
<g><path style="opacity:0.992" fill="#d7d7d7" d="M 373.5,133.5 C 382.701,138.596 391.701,143.93 400.5,149.5C 400.19,150.738 399.69,150.738 399,149.5C 398.832,175.67 398.332,201.67 397.5,227.5C 393.166,225.808 389.833,223.142 387.5,219.5C 388.902,214.616 389.569,209.616 389.5,204.5C 384.203,205.275 378.87,205.608 373.5,205.5C 373.5,181.5 373.5,157.5 373.5,133.5 Z"/></g>
<g><path style="opacity:0.985" fill="#dbdbdb" d="M 139.5,148.5 C 134.791,177.437 129.458,206.104 123.5,234.5C 120.833,233.167 118.167,231.833 115.5,230.5C 100.355,231.128 85.3551,230.128 70.5,227.5C 56.7367,223.866 44.57,217.199 34,207.5C 30.619,202.73 27.7857,197.73 25.5,192.5C 24.962,186.598 25.7953,180.932 28,175.5C 28.5613,174.978 29.228,174.645 30,174.5C 44.1566,182.65 58.3233,190.817 72.5,199C 85.8838,198.494 99.2171,197.161 112.5,195C 113.624,194.751 114.624,194.251 115.5,193.5C 116.312,191.055 117.312,188.722 118.5,186.5C 121.43,181.371 123.096,176.038 123.5,170.5C 108.806,162.155 94.1393,153.821 79.5,145.5C 99.5904,141.502 119.59,142.502 139.5,148.5 Z"/></g>
<g><path style="opacity:0.982" fill="#9f9f9f" d="M 306.5,135.5 C 309.99,140.471 313.49,145.471 317,150.5C 322.049,157.79 323.715,165.79 322,174.5C 320.754,177.913 318.587,180.579 315.5,182.5C 314.833,182.5 314.5,182.833 314.5,183.5C 311.177,179.54 307.844,175.54 304.5,171.5C 305.167,159.5 305.833,147.5 306.5,135.5 Z"/></g>
<g><path style="opacity:0.971" fill="#7a7a7a" d="M 79.5,145.5 C 94.1393,153.821 108.806,162.155 123.5,170.5C 123.096,176.038 121.43,181.371 118.5,186.5C 105.555,179.394 92.7217,172.061 80,164.5C 79.5005,158.175 79.3338,151.842 79.5,145.5 Z"/></g>
<g><path style="opacity:0.993" fill="#d7d7d7" d="M 139.5,148.5 C 149.869,151.85 159.203,157.017 167.5,164C 176.203,172.775 179.703,183.275 178,195.5C 188.312,201.4 198.479,207.4 208.5,213.5C 204.002,231.472 200.669,249.805 198.5,268.5C 195.661,270.42 192.661,272.087 189.5,273.5C 167.5,260.5 145.5,247.5 123.5,234.5C 129.458,206.104 134.791,177.437 139.5,148.5 Z"/></g>
<g><path style="opacity:0.988" fill="#cecece" d="M 400.5,149.5 C 413.635,156.568 426.635,163.901 439.5,171.5C 436.335,175.498 432.668,178.998 428.5,182C 432.587,182.762 436.587,182.596 440.5,181.5C 445.82,180.734 451.154,180.568 456.5,181C 464.5,185.667 472.5,190.333 480.5,195C 482.635,195.876 483.969,197.376 484.5,199.5C 484.141,201.371 483.141,202.871 481.5,204C 463.939,213.941 446.606,224.108 429.5,234.5C 424.802,236.881 419.802,237.881 414.5,237.5C 408.669,234.419 403.002,231.085 397.5,227.5C 398.332,201.67 398.832,175.67 399,149.5C 399.69,150.738 400.19,150.738 400.5,149.5 Z"/></g>
<g><path style="opacity:0.824" fill="#969696" d="M 439.5,171.5 C 440.479,174.625 440.813,177.958 440.5,181.5C 436.587,182.596 432.587,182.762 428.5,182C 432.668,178.998 436.335,175.498 439.5,171.5 Z"/></g>
<g><path style="opacity:1" fill="#b1b1b1" d="M 315.5,182.5 C 315.369,183.376 315.702,184.043 316.5,184.5C 323.404,187.775 329.738,191.775 335.5,196.5C 333.044,195.738 330.544,195.071 328,194.5C 323.283,196.11 318.783,198.11 314.5,200.5C 314.5,194.833 314.5,189.167 314.5,183.5C 314.5,182.833 314.833,182.5 315.5,182.5 Z"/></g>
<g><path style="opacity:0.958" fill="#636363" d="M 25.5,192.5 C 27.7857,197.73 30.619,202.73 34,207.5C 44.57,217.199 56.7367,223.866 70.5,227.5C 70.5,233.5 70.5,239.5 70.5,245.5C 55.4255,242.547 42.5922,235.547 32,224.5C 29.1901,220.547 27.1901,216.213 26,211.5C 25.5005,205.175 25.3338,198.842 25.5,192.5 Z"/></g>
<g><path style="opacity:0.99" fill="#1d1d1b" d="M 335.5,196.5 C 336.605,197.6 337.938,198.267 339.5,198.5C 350.444,208.05 355.61,220.05 355,234.5C 354.262,237.648 352.762,240.315 350.5,242.5C 335.663,251.419 320.663,260.086 305.5,268.5C 285.031,279.902 264.698,291.569 244.5,303.5C 238.541,306.807 232.875,310.473 227.5,314.5C 186.806,337.845 146.139,361.178 105.5,384.5C 109.722,378.342 110.556,371.675 108,364.5C 104.824,354.961 99.3236,347.128 91.5,341C 87.8131,338.715 83.8131,337.548 79.5,337.5C 110.335,318.915 141.335,300.581 172.5,282.5C 178.607,280.281 184.273,277.281 189.5,273.5C 192.661,272.087 195.661,270.42 198.5,268.5C 216.2,258.655 233.533,248.322 250.5,237.5C 271.833,225.167 293.167,212.833 314.5,200.5C 318.783,198.11 323.283,196.11 328,194.5C 330.544,195.071 333.044,195.738 335.5,196.5 Z"/></g>
<g><path style="opacity:0.978" fill="#939393" d="M 484.5,199.5 C 485.659,210.993 485.826,222.659 485,234.5C 484.71,236.952 484.044,239.285 483,241.5C 465.521,252.488 447.687,262.821 429.5,272.5C 429.5,259.833 429.5,247.167 429.5,234.5C 446.606,224.108 463.939,213.941 481.5,204C 483.141,202.871 484.141,201.371 484.5,199.5 Z"/></g>
<g><path style="opacity:0.989" fill="#959595" d="M 339.5,198.5 C 344.938,201.053 350.271,203.887 355.5,207C 361.707,207.474 367.707,206.974 373.5,205.5C 378.87,205.608 384.203,205.275 389.5,204.5C 389.569,209.616 388.902,214.616 387.5,219.5C 386.507,227.65 386.174,235.983 386.5,244.5C 376.173,245.436 365.84,245.936 355.5,246C 353.416,245.303 351.749,244.136 350.5,242.5C 352.762,240.315 354.262,237.648 355,234.5C 355.61,220.05 350.444,208.05 339.5,198.5 Z"/></g>
<g><path style="opacity:0.986" fill="#d2d2d2" d="M 208.5,213.5 C 222.74,221.072 236.74,229.072 250.5,237.5C 233.533,248.322 216.2,258.655 198.5,268.5C 200.669,249.805 204.002,231.472 208.5,213.5 Z"/></g>
<g><path style="opacity:0.985" fill="#b7b7b7" d="M 387.5,219.5 C 389.833,223.142 393.166,225.808 397.5,227.5C 403.002,231.085 408.669,234.419 414.5,237.5C 414.5,250.167 414.5,262.833 414.5,275.5C 405.019,271.174 395.852,266.174 387,260.5C 386.501,255.177 386.334,249.844 386.5,244.5C 386.174,235.983 386.507,227.65 387.5,219.5 Z"/></g>
<g><path style="opacity:0.982" fill="#4d4d4d" d="M 70.5,227.5 C 85.3551,230.128 100.355,231.128 115.5,230.5C 115.5,236.833 115.5,243.167 115.5,249.5C 105.828,249.666 96.1609,249.5 86.5,249C 80.8889,248.514 75.5556,247.347 70.5,245.5C 70.5,239.5 70.5,233.5 70.5,227.5 Z"/></g>
<g><path style="opacity:0.978" fill="#656565" d="M 115.5,230.5 C 118.167,231.833 120.833,233.167 123.5,234.5C 145.5,247.5 167.5,260.5 189.5,273.5C 184.273,277.281 178.607,280.281 172.5,282.5C 153.699,271.263 134.699,260.263 115.5,249.5C 115.5,243.167 115.5,236.833 115.5,230.5 Z"/></g>
<g><path style="opacity:0.985" fill="#acacac" d="M 429.5,234.5 C 429.5,247.167 429.5,259.833 429.5,272.5C 425.106,276.343 420.106,277.343 414.5,275.5C 414.5,262.833 414.5,250.167 414.5,237.5C 419.802,237.881 424.802,236.881 429.5,234.5 Z"/></g>
<g><path style="opacity:0.991" fill="#cccccc" d="M 305.5,268.5 C 318.606,276.559 331.939,284.392 345.5,292C 372.34,289.081 397.34,294.414 420.5,308C 432.092,315.753 437.759,326.586 437.5,340.5C 433.726,352.786 426.059,361.953 414.5,368C 398.78,375.962 382.113,380.129 364.5,380.5C 341.014,381.906 319.347,376.406 299.5,364C 291.994,358.344 286.66,351.177 283.5,342.5C 283.446,337.413 283.613,332.413 284,327.5C 270.187,320.353 257.02,312.353 244.5,303.5C 264.698,291.569 285.031,279.902 305.5,268.5 Z M 355.5,334.5 C 368.167,336.167 380.833,337.833 393.5,339.5C 394.108,342.327 395.108,344.993 396.5,347.5C 389.314,351.682 382.147,356.015 375,360.5C 362.225,358.245 349.392,356.079 336.5,354C 335.027,351.552 333.693,349.052 332.5,346.5C 340.079,342.212 347.745,338.212 355.5,334.5 Z"/></g>
<g><path style="opacity:0.977" fill="#4c4c4c" d="M 244.5,303.5 C 257.02,312.353 270.187,320.353 284,327.5C 283.613,332.413 283.446,337.413 283.5,342.5C 283.737,343.791 283.404,344.791 282.5,345.5C 264.301,334.901 245.968,324.568 227.5,314.5C 232.875,310.473 238.541,306.807 244.5,303.5 Z"/></g>
<g><path style="opacity:0.974" fill="#7a7a7a" d="M 352.5,316.5 C 366.106,317.078 379.772,318.911 393.5,322C 394.056,322.383 394.389,322.883 394.5,323.5C 393.512,328.64 393.179,333.974 393.5,339.5C 380.833,337.833 368.167,336.167 355.5,334.5C 353.923,328.599 352.923,322.599 352.5,316.5 Z"/></g>
<g><path style="opacity:0.985" fill="#646464" d="M 352.5,316.5 C 352.923,322.599 353.923,328.599 355.5,334.5C 347.745,338.212 340.079,342.212 332.5,346.5C 329.77,341.711 327.604,336.711 326,331.5C 334.645,326.096 343.478,321.096 352.5,316.5 Z"/></g>
<g><path style="opacity:0.966" fill="#666666" d="M 394.5,323.5 C 397.784,329.843 400.784,336.343 403.5,343C 401.835,345.502 399.502,347.002 396.5,347.5C 395.108,344.993 394.108,342.327 393.5,339.5C 393.179,333.974 393.512,328.64 394.5,323.5 Z"/></g>
<g><path style="opacity:0.966" fill="#000000" d="M 79.5,337.5 C 83.8131,337.548 87.8131,338.715 91.5,341C 99.3236,347.128 104.824,354.961 108,364.5C 110.556,371.675 109.722,378.342 105.5,384.5C 101.638,387.805 97.305,388.305 92.5,386C 79.4192,378.532 72.0859,367.199 70.5,352C 70.8162,347.901 71.9828,344.067 74,340.5C 75.4877,338.84 77.321,337.84 79.5,337.5 Z"/></g>
<g><path style="opacity:0.974" fill="#4c4c4c" d="M 437.5,340.5 C 440.47,356.761 435.803,370.261 423.5,381C 404.546,393.825 383.546,399.992 360.5,399.5C 360.5,393.5 360.5,387.5 360.5,381.5C 362.099,381.768 363.432,381.434 364.5,380.5C 382.113,380.129 398.78,375.962 414.5,368C 426.059,361.953 433.726,352.786 437.5,340.5 Z"/></g>
<g><path style="opacity:0.964" fill="#636363" d="M 283.5,342.5 C 286.66,351.177 291.994,358.344 299.5,364C 319.347,376.406 341.014,381.906 364.5,380.5C 363.432,381.434 362.099,381.768 360.5,381.5C 360.5,387.5 360.5,393.5 360.5,399.5C 338.481,400.079 318.147,394.579 299.5,383C 286.673,373.84 281.007,361.34 282.5,345.5C 283.404,344.791 283.737,343.791 283.5,342.5 Z"/></g>
</svg>
