<?xml version="1.0" encoding="UTF-8"?>
<!DOCTYPE svg PUBLIC "-//W3C//DTD SVG 1.1//EN" "http://www.w3.org/Graphics/SVG/1.1/DTD/svg11.dtd">
<svg xmlns="http://www.w3.org/2000/svg" version="1.1" width="512px" height="512px" style="shape-rendering:geometricPrecision; text-rendering:geometricPrecision; image-rendering:optimizeQuality; fill-rule:evenodd; clip-rule:evenodd" xmlns:xlink="http://www.w3.org/1999/xlink">
<g><path style="opacity:0.95" fill="#5c717f" d="M 418.5,484.5 C 419.787,482.363 420.621,480.03 421,477.5C 421.667,394.5 421.667,311.5 421,228.5C 418.829,219.999 413.996,213.499 406.5,209C 304.67,150.586 203.003,91.9193 101.5,33C 97.7814,30.6361 93.7814,29.1361 89.5,28.5C 91.5669,26.1331 94.2335,24.7997 97.5,24.5C 102.044,25.7699 106.377,27.6033 110.5,30C 211.337,88.586 312.337,146.919 413.5,205C 421.025,209.522 425.859,216.022 428,224.5C 428.86,309.173 428.527,393.839 427,478.5C 424.721,481.381 421.888,483.381 418.5,484.5 Z"/></g>
<g><path style="opacity:0.984" fill="#3b4951" d="M 89.5,28.5 C 93.7814,29.1361 97.7814,30.6361 101.5,33C 203.003,91.9193 304.67,150.586 406.5,209C 413.996,213.499 418.829,219.999 421,228.5C 421.667,311.5 421.667,394.5 421,477.5C 420.621,480.03 419.787,482.363 418.5,484.5C 417.223,485.898 415.557,486.564 413.5,486.5C 409.626,485.565 405.96,484.065 402.5,482C 300.997,423.081 199.33,364.414 97.5,306C 89.9748,301.478 85.1414,294.978 83,286.5C 82.1359,201.827 82.4692,117.161 84,32.5C 85.451,30.5359 87.2843,29.2026 89.5,28.5 Z"/></g>
<g><path style="opacity:1" fill="#fefefe" d="M 188.5,95.5 C 188.5,128.5 188.5,161.5 188.5,194.5C 188.5,206.5 188.5,218.5 188.5,230.5C 188.5,232.833 188.5,235.167 188.5,237.5C 188.5,250.833 188.5,264.167 188.5,277.5C 188.5,292.167 188.5,306.833 188.5,321.5C 161.517,306.195 134.517,290.861 107.5,275.5C 103.206,272.895 98.8731,270.228 94.5,267.5C 93.5,196.503 93.1667,125.503 93.5,54.5C 93.64,47.8576 96.9734,45.0242 103.5,46C 132.224,62.0218 160.558,78.5218 188.5,95.5 Z"/></g>
<g><path style="opacity:1" fill="#5e6b76" d="M 93.5,54.5 C 93.1667,125.503 93.5,196.503 94.5,267.5C 98.8731,270.228 103.206,272.895 107.5,275.5C 104.204,279.298 100.704,282.964 97,286.5C 96.6174,285.944 96.1174,285.611 95.5,285.5C 94.037,282.797 93.2037,279.797 93,276.5C 92.1678,202.332 92.3345,128.332 93.5,54.5 Z"/></g>
<g><path style="opacity:1" fill="#5f7381" d="M 132.5,86.5 C 148.872,89.559 154.872,99.2257 150.5,115.5C 136.975,115.976 130.308,109.309 130.5,95.5C 130.269,92.1904 130.935,89.1904 132.5,86.5 Z"/></g>
<g><path style="opacity:1" fill="#d6d9fe" d="M 188.5,95.5 C 199.633,101.234 210.633,107.234 221.5,113.5C 224.656,126.459 227.656,139.459 230.5,152.5C 230.5,152.833 230.5,153.167 230.5,153.5C 216.5,167.167 202.5,180.833 188.5,194.5C 188.5,161.5 188.5,128.5 188.5,95.5 Z"/></g>
<g><path style="opacity:1" fill="#afb3f3" d="M 221.5,113.5 C 224.047,114.934 226.381,116.6 228.5,118.5C 230.941,128.149 233.274,137.816 235.5,147.5C 235.5,147.833 235.5,148.167 235.5,148.5C 233.833,149.833 232.167,151.167 230.5,152.5C 227.656,139.459 224.656,126.459 221.5,113.5 Z"/></g>
<g><path style="opacity:1" fill="#d4d7fc" d="M 228.5,118.5 C 236.428,122.441 244.095,126.774 251.5,131.5C 246.5,137.167 241.167,142.5 235.5,147.5C 233.274,137.816 230.941,128.149 228.5,118.5 Z"/></g>
<g><path style="opacity:1" fill="#ed494f" d="M 156.5,161.5 C 156.5,165.5 156.5,169.5 156.5,173.5C 156.5,179.833 156.5,186.167 156.5,192.5C 156.5,196.5 156.5,200.5 156.5,204.5C 157.822,209.993 155.822,212.493 150.5,212C 142.575,207.79 135.075,202.957 128,197.5C 126.864,195.257 126.03,192.924 125.5,190.5C 125.5,172.167 125.5,153.833 125.5,135.5C 126.128,132.045 128.128,130.878 131.5,132C 137.67,135.919 144.003,139.586 150.5,143C 155.952,147.962 157.952,154.129 156.5,161.5 Z"/></g>
<g><path style="opacity:1" fill="#e2e4fe" d="M 251.5,131.5 C 258.806,135.488 266.14,139.488 273.5,143.5C 273.833,158.848 273.499,174.181 272.5,189.5C 262.416,183.374 252.249,177.374 242,171.5C 239.672,163.85 237.505,156.183 235.5,148.5C 235.5,148.167 235.5,147.833 235.5,147.5C 241.167,142.5 246.5,137.167 251.5,131.5 Z"/></g>
<g><path style="opacity:1" fill="#6b7e8b" d="M 124.5,141.5 C 124.5,145.5 124.5,149.5 124.5,153.5C 123.206,151.952 122.539,149.952 122.5,147.5C 122.539,145.048 123.206,143.048 124.5,141.5 Z"/></g>
<g><path style="opacity:1" fill="#c7caf7" d="M 273.5,143.5 C 276.047,144.934 278.381,146.6 280.5,148.5C 280.333,176.169 280.5,203.835 281,231.5C 285.188,237.234 289.354,242.901 293.5,248.5C 293.5,248.833 293.5,249.167 293.5,249.5C 289.833,252.833 286.167,256.167 282.5,259.5C 282.801,255.163 283.801,250.996 285.5,247C 281.549,241.604 277.716,236.104 274,230.5C 273.667,219.5 273.333,208.5 273,197.5C 261.249,190.374 249.416,183.374 237.5,176.5C 234.931,168.801 232.598,161.135 230.5,153.5C 230.5,153.167 230.5,152.833 230.5,152.5C 232.167,151.167 233.833,149.833 235.5,148.5C 237.505,156.183 239.672,163.85 242,171.5C 252.249,177.374 262.416,183.374 272.5,189.5C 273.499,174.181 273.833,158.848 273.5,143.5 Z"/></g>
<g><path style="opacity:1" fill="#e1e3fe" d="M 280.5,148.5 C 292.738,154.738 304.738,161.404 316.5,168.5C 320.812,183.746 324.812,199.08 328.5,214.5C 320.5,222.167 312.5,229.833 304.5,237.5C 304.827,232.786 304.493,228.12 303.5,223.5C 299.5,221.167 295.5,218.833 291.5,216.5C 290.337,221.802 290.171,227.136 291,232.5C 295.147,234.482 298.98,236.816 302.5,239.5C 299.833,242.833 296.833,245.833 293.5,248.5C 289.354,242.901 285.188,237.234 281,231.5C 280.5,203.835 280.333,176.169 280.5,148.5 Z"/></g>
<g><path style="opacity:1" fill="#e50202" d="M 131.5,148.5 C 136.938,151.053 142.271,153.887 147.5,157C 149.378,158.543 150.878,160.376 152,162.5C 152.667,172.833 152.667,183.167 152,193.5C 151.311,194.357 150.478,195.023 149.5,195.5C 144.5,192.667 139.5,189.833 134.5,187C 132.622,185.457 131.122,183.624 130,181.5C 129.333,171.167 129.333,160.833 130,150.5C 130.717,149.956 131.217,149.289 131.5,148.5 Z"/></g>
<g><path style="opacity:1" fill="#e2e4fe" d="M 230.5,153.5 C 232.598,161.135 234.931,168.801 237.5,176.5C 249.416,183.374 261.249,190.374 273,197.5C 273.333,208.5 273.667,219.5 274,230.5C 277.716,236.104 281.549,241.604 285.5,247C 283.801,250.996 282.801,255.163 282.5,259.5C 280.196,266.046 278.196,272.712 276.5,279.5C 276.167,279.833 275.833,280.167 275.5,280.5C 272.634,278.568 269.634,276.901 266.5,275.5C 240.862,260.01 214.862,245.01 188.5,230.5C 188.5,218.5 188.5,206.5 188.5,194.5C 202.5,180.833 216.5,167.167 230.5,153.5 Z"/></g>
<g><path style="opacity:1" fill="#7a8792" d="M 156.5,161.5 C 157.496,161.414 158.329,161.748 159,162.5C 159.667,166.5 159.667,170.5 159,174.5C 158.329,173.748 157.496,173.414 156.5,173.5C 156.5,169.5 156.5,165.5 156.5,161.5 Z"/></g>
<g><path style="opacity:1" fill="#c6c9f7" d="M 287.5,165.5 C 290.114,166.807 292.78,168.14 295.5,169.5C 296.833,180.167 296.833,190.833 295.5,201.5C 293.167,200.167 290.833,198.833 288.5,197.5C 287.501,186.854 287.168,176.187 287.5,165.5 Z"/></g>
<g><path style="opacity:1" fill="#908afe" d="M 316.5,168.5 C 329.034,175.596 341.367,182.93 353.5,190.5C 345.255,197.24 337.422,204.573 330,212.5C 329.536,213.094 329.369,213.761 329.5,214.5C 329.167,214.5 328.833,214.5 328.5,214.5C 324.812,199.08 320.812,183.746 316.5,168.5 Z"/></g>
<g><path style="opacity:1" fill="#998e97" d="M 125.5,135.5 C 125.5,153.833 125.5,172.167 125.5,190.5C 123.764,187.161 122.764,183.494 122.5,179.5C 124.093,170.903 124.76,162.236 124.5,153.5C 124.5,149.5 124.5,145.5 124.5,141.5C 124.205,139.265 124.539,137.265 125.5,135.5 Z"/></g>
<g><path style="opacity:1" fill="#c6c9f7" d="M 304.5,175.5 C 307.423,176.295 310.09,177.628 312.5,179.5C 313.833,190.167 313.833,200.833 312.5,211.5C 310.167,210.167 307.833,208.833 305.5,207.5C 304.501,196.854 304.168,186.187 304.5,175.5 Z"/></g>
<g><path style="opacity:1" fill="#6159fe" d="M 353.5,190.5 C 363.3,195.567 372.967,200.901 382.5,206.5C 370.833,218.5 359.167,230.5 347.5,242.5C 342.622,240.461 338.788,237.127 336,232.5C 332.937,226.809 330.77,220.809 329.5,214.5C 329.369,213.761 329.536,213.094 330,212.5C 337.422,204.573 345.255,197.24 353.5,190.5 Z"/></g>
<g><path style="opacity:1" fill="#c7c9f7" d="M 205.5,192.5 C 213.607,196.723 221.607,201.223 229.5,206C 230.61,208.737 230.777,211.571 230,214.5C 222.249,209.707 214.416,205.041 206.5,200.5C 205.52,197.914 205.187,195.247 205.5,192.5 Z"/></g>
<g><path style="opacity:1" fill="#798692" d="M 156.5,192.5 C 157.15,192.804 157.817,193.137 158.5,193.5C 159.833,197.5 159.833,201.5 158.5,205.5C 157.817,205.137 157.15,204.804 156.5,204.5C 156.5,200.5 156.5,196.5 156.5,192.5 Z"/></g>
<g><path style="opacity:1" fill="#c6c9f7" d="M 241.5,202.5 C 249.94,206.889 258.274,211.556 266.5,216.5C 267.833,222.833 267.833,229.167 266.5,235.5C 258.759,230.434 250.759,225.768 242.5,221.5C 241.504,215.202 241.17,208.868 241.5,202.5 Z"/></g>
<g><path style="opacity:1" fill="#8e88fd" d="M 382.5,206.5 C 388.806,210.322 395.139,214.155 401.5,218C 405.93,222.766 409.097,228.266 411,234.5C 411.5,269.165 411.667,303.832 411.5,338.5C 411.167,338.5 410.833,338.5 410.5,338.5C 410.5,338.167 410.5,337.833 410.5,337.5C 410.667,303.832 410.5,270.165 410,236.5C 397.667,248.833 385.333,261.167 373,273.5C 372.517,274.448 372.351,275.448 372.5,276.5C 371.833,276.5 371.5,276.167 371.5,275.5C 371.928,263.854 367.594,254.354 358.5,247C 355.046,245.143 351.379,243.977 347.5,243.5C 347.5,243.167 347.5,242.833 347.5,242.5C 359.167,230.5 370.833,218.5 382.5,206.5 Z"/></g>
<g><path style="opacity:1" fill="#c6c9f7" d="M 205.5,209.5 C 213.778,213.939 221.945,218.606 230,223.5C 230.667,229.833 230.667,236.167 230,242.5C 222.249,237.707 214.416,233.041 206.5,228.5C 205.504,222.202 205.17,215.868 205.5,209.5 Z"/></g>
<g><path style="opacity:1" fill="#c6c9f7" d="M 304.5,237.5 C 304.869,239.993 304.203,240.66 302.5,239.5C 298.98,236.816 295.147,234.482 291,232.5C 290.171,227.136 290.337,221.802 291.5,216.5C 295.5,218.833 299.5,221.167 303.5,223.5C 304.493,228.12 304.827,232.786 304.5,237.5 Z"/></g>
<g><path style="opacity:1" fill="#687c89" d="M 130.5,217.5 C 136.926,220.743 143.26,224.243 149.5,228C 150.406,229.699 150.739,231.533 150.5,233.5C 144.105,230.467 137.772,227.134 131.5,223.5C 130.534,221.604 130.201,219.604 130.5,217.5 Z"/></g>
<g><path style="opacity:1" fill="#667a87" d="M 145.5,236.5 C 145.267,238.062 144.6,239.395 143.5,240.5C 137.074,237.257 130.74,233.757 124.5,230C 123.24,228.186 123.24,226.353 124.5,224.5C 131.725,228.274 138.725,232.274 145.5,236.5 Z"/></g>
<g><path style="opacity:1" fill="#c7caf7" d="M 188.5,230.5 C 214.862,245.01 240.862,260.01 266.5,275.5C 265.5,277.167 264.167,278.5 262.5,279.5C 262.167,279.5 261.833,279.5 261.5,279.5C 237.003,265.753 212.67,251.753 188.5,237.5C 188.5,235.167 188.5,232.833 188.5,230.5 Z"/></g>
<g><path style="opacity:1" fill="#c6c9f7" d="M 241.5,230.5 C 249.94,234.889 258.274,239.556 266.5,244.5C 267.833,250.833 267.833,257.167 266.5,263.5C 258.759,258.434 250.759,253.768 242.5,249.5C 241.504,243.202 241.17,236.868 241.5,230.5 Z"/></g>
<g><path style="opacity:1" fill="#d6d9fe" d="M 328.5,214.5 C 328.833,214.5 329.167,214.5 329.5,214.5C 330.77,220.809 332.937,226.809 336,232.5C 338.788,237.127 342.622,240.461 347.5,242.5C 347.5,242.833 347.5,243.167 347.5,243.5C 344.606,244.882 342.106,246.882 340,249.5C 339.83,259.009 339.33,268.342 338.5,277.5C 338.5,268.833 338.5,260.167 338.5,251.5C 338.785,249.712 338.452,248.045 337.5,246.5C 329.5,241.833 321.5,237.167 313.5,232.5C 312.167,242.833 312.167,253.167 313.5,263.5C 316.22,264.86 318.886,266.193 321.5,267.5C 321.5,267.833 321.5,268.167 321.5,268.5C 318.833,270.833 316.167,273.167 313.5,275.5C 313.167,275.5 312.833,275.5 312.5,275.5C 306.155,266.795 299.821,258.129 293.5,249.5C 293.5,249.167 293.5,248.833 293.5,248.5C 296.833,245.833 299.833,242.833 302.5,239.5C 304.203,240.66 304.869,239.993 304.5,237.5C 312.5,229.833 320.5,222.167 328.5,214.5 Z"/></g>
<g><path style="opacity:1" fill="#aeb2f4" d="M 338.5,251.5 C 332.833,256.833 327.167,262.167 321.5,267.5C 318.886,266.193 316.22,264.86 313.5,263.5C 312.167,253.167 312.167,242.833 313.5,232.5C 321.5,237.167 329.5,241.833 337.5,246.5C 338.452,248.045 338.785,249.712 338.5,251.5 Z"/></g>
<g><path style="opacity:1" fill="#687c89" d="M 139.5,243.5 C 138.738,245.262 137.404,246.262 135.5,246.5C 131.727,244.779 128.061,242.779 124.5,240.5C 123.167,238.5 123.167,236.5 124.5,234.5C 129.362,237.763 134.362,240.763 139.5,243.5 Z"/></g>
<g><path style="opacity:1" fill="#6159ff" d="M 410.5,337.5 C 398.884,328.385 388.051,318.385 378,307.5C 373.922,297.633 372.088,287.3 372.5,276.5C 372.351,275.448 372.517,274.448 373,273.5C 385.333,261.167 397.667,248.833 410,236.5C 410.5,270.165 410.667,303.832 410.5,337.5 Z"/></g>
<g><path style="opacity:1" fill="#93a1ab" d="M 145.5,236.5 C 149.15,238.472 152.816,240.472 156.5,242.5C 157.833,244.5 157.833,246.5 156.5,248.5C 151.935,246.059 147.602,243.392 143.5,240.5C 144.6,239.395 145.267,238.062 145.5,236.5 Z"/></g>
<g><path style="opacity:1" fill="#e2e4fe" d="M 188.5,237.5 C 212.67,251.753 237.003,265.753 261.5,279.5C 259.557,283.278 256.723,286.278 253,288.5C 249.09,286.918 245.424,284.918 242,282.5C 241.333,287.5 241.333,292.5 242,297.5C 242.5,298 243,298.5 243.5,299C 239.905,303.104 235.905,306.604 231.5,309.5C 229.66,307.832 227.66,306.332 225.5,305C 219.477,303.439 213.81,301.106 208.5,298C 204.215,293.26 200.048,288.427 196,283.5C 193.914,280.906 191.414,278.906 188.5,277.5C 188.5,264.167 188.5,250.833 188.5,237.5 Z"/></g>
<g><path style="opacity:1" fill="#e2e4fe" d="M 347.5,243.5 C 351.379,243.977 355.046,245.143 358.5,247C 367.594,254.354 371.928,263.854 371.5,275.5C 364.368,282.131 357.368,288.964 350.5,296C 349.552,296.483 348.552,296.649 347.5,296.5C 344.14,294.82 340.807,293.153 337.5,291.5C 336.672,297.653 336.172,303.987 336,310.5C 333.318,313.35 330.484,316.016 327.5,318.5C 326.833,310.01 326.167,301.676 325.5,293.5C 321.082,287.754 317.082,281.754 313.5,275.5C 316.167,273.167 318.833,270.833 321.5,268.5C 327.298,271.233 332.965,274.233 338.5,277.5C 339.33,268.342 339.83,259.009 340,249.5C 342.106,246.882 344.606,244.882 347.5,243.5 Z"/></g>
<g><path style="opacity:1" fill="#93a1ab" d="M 139.5,243.5 C 145.139,246.655 150.806,249.821 156.5,253C 157.769,255.139 157.769,257.305 156.5,259.5C 149.268,255.392 142.268,251.059 135.5,246.5C 137.404,246.262 138.738,245.262 139.5,243.5 Z"/></g>
<g><path style="opacity:1" fill="#c6c8f7" d="M 338.5,251.5 C 338.5,260.167 338.5,268.833 338.5,277.5C 332.965,274.233 327.298,271.233 321.5,268.5C 321.5,268.167 321.5,267.833 321.5,267.5C 327.167,262.167 332.833,256.833 338.5,251.5 Z"/></g>
<g><path style="opacity:1" fill="#dbdeff" d="M 112.5,253.5 C 119.404,254.403 123.404,258.403 124.5,265.5C 124.167,269.989 121.833,271.489 117.5,270C 111.192,265.628 109.525,260.128 112.5,253.5 Z"/></g>
<g><path style="opacity:1" fill="#afb3f4" d="M 293.5,249.5 C 299.821,258.129 306.155,266.795 312.5,275.5C 312.167,277.833 310.833,279.167 308.5,279.5C 302.676,271.196 296.843,262.862 291,254.5C 287.511,267.457 284.177,280.457 281,293.5C 280.501,298.489 280.334,303.489 280.5,308.5C 280.167,309.167 279.833,309.833 279.5,310.5C 277.5,312.167 275.5,313.833 273.5,315.5C 273.481,306.13 273.647,296.797 274,287.5C 269.838,285.181 266.005,282.514 262.5,279.5C 264.167,278.5 265.5,277.167 266.5,275.5C 269.634,276.901 272.634,278.568 275.5,280.5C 275.833,280.167 276.167,279.833 276.5,279.5C 278.196,272.712 280.196,266.046 282.5,259.5C 286.167,256.167 289.833,252.833 293.5,249.5 Z"/></g>
<g><path style="opacity:1" fill="#d6d9fe" d="M 308.5,279.5 C 308.5,279.833 308.5,280.167 308.5,280.5C 299.5,290.167 290.167,299.5 280.5,308.5C 280.334,303.489 280.501,298.489 281,293.5C 284.177,280.457 287.511,267.457 291,254.5C 296.843,262.862 302.676,271.196 308.5,279.5 Z"/></g>
<g><path style="opacity:1" fill="#909ea8" d="M 136.5,266.5 C 143.134,267.972 146.801,272.139 147.5,279C 147.581,283.256 145.581,284.923 141.5,284C 134.799,279.417 133.132,273.584 136.5,266.5 Z"/></g>
<g><path style="opacity:1" fill="#d6d9fe" d="M 371.5,275.5 C 371.5,276.167 371.833,276.5 372.5,276.5C 372.088,287.3 373.922,297.633 378,307.5C 388.051,318.385 398.884,328.385 410.5,337.5C 410.5,337.833 410.5,338.167 410.5,338.5C 410.832,375.67 410.498,412.67 409.5,449.5C 381.136,433.656 353.136,417.323 325.5,400.5C 325.333,378.164 325.5,355.831 326,333.5C 343,344.5 360,355.5 377,366.5C 382.667,382.5 388.333,398.5 394,414.5C 395.699,415.406 397.533,415.739 399.5,415.5C 393.838,397.349 387.672,379.349 381,361.5C 363.06,349.449 344.893,337.782 326.5,326.5C 325.649,315.523 325.316,304.523 325.5,293.5C 326.167,301.676 326.833,310.01 327.5,318.5C 330.484,316.016 333.318,313.35 336,310.5C 336.172,303.987 336.672,297.653 337.5,291.5C 337.5,297.167 337.5,302.833 337.5,308.5C 337.334,312.846 337.501,317.179 338,321.5C 346.333,326.5 354.667,331.5 363,336.5C 363.832,326.151 363.666,315.817 362.5,305.5C 357.605,302.554 352.605,299.887 347.5,297.5C 347.5,297.167 347.5,296.833 347.5,296.5C 348.552,296.649 349.552,296.483 350.5,296C 357.368,288.964 364.368,282.131 371.5,275.5 Z"/></g>
<g><path style="opacity:1" fill="#8e9ca7" d="M 107.5,275.5 C 134.517,290.861 161.517,306.195 188.5,321.5C 195.131,325.485 201.798,329.485 208.5,333.5C 205.805,336.526 203.138,339.526 200.5,342.5C 200.645,336.818 198.145,332.818 193,330.5C 189.795,331.798 188.795,334.132 190,337.5C 191.385,342.399 194.552,344.733 199.5,344.5C 197.192,345.793 194.858,347.126 192.5,348.5C 164.221,332.357 135.888,316.19 107.5,300C 101.815,296.488 97.8146,291.655 95.5,285.5C 96.1174,285.611 96.6174,285.944 97,286.5C 100.704,282.964 104.204,279.298 107.5,275.5 Z"/></g>
<g><path style="opacity:1" fill="#c6c9f7" d="M 312.5,275.5 C 312.833,275.5 313.167,275.5 313.5,275.5C 317.082,281.754 321.082,287.754 325.5,293.5C 325.316,304.523 325.649,315.523 326.5,326.5C 325.698,325.048 325.198,323.382 325,321.5C 323.296,323.373 321.463,325.04 319.5,326.5C 319.667,315.495 319.5,304.495 319,293.5C 315.96,288.731 312.46,284.397 308.5,280.5C 308.5,280.167 308.5,279.833 308.5,279.5C 310.833,279.167 312.167,277.833 312.5,275.5 Z"/></g>
<g><path style="opacity:1" fill="#908afe" d="M 188.5,277.5 C 191.414,278.906 193.914,280.906 196,283.5C 200.048,288.427 204.215,293.26 208.5,298C 213.81,301.106 219.477,303.439 225.5,305C 227.66,306.332 229.66,307.832 231.5,309.5C 231.5,309.833 231.5,310.167 231.5,310.5C 224.167,318.167 216.833,325.833 209.5,333.5C 209.167,333.5 208.833,333.5 208.5,333.5C 201.798,329.485 195.131,325.485 188.5,321.5C 188.5,306.833 188.5,292.167 188.5,277.5 Z"/></g>
<g><path style="opacity:1" fill="#e3e5ff" d="M 159.5,280.5 C 166.662,281.498 170.662,285.664 171.5,293C 170.841,297.082 168.508,298.416 164.5,297C 158.422,292.616 156.755,287.116 159.5,280.5 Z"/></g>
<g><path style="opacity:1" fill="#e1e3fe" d="M 308.5,280.5 C 312.46,284.397 315.96,288.731 319,293.5C 319.5,304.495 319.667,315.495 319.5,326.5C 319.5,326.833 319.5,327.167 319.5,327.5C 316.105,330.902 312.438,333.902 308.5,336.5C 301.867,332.89 295.201,329.223 288.5,325.5C 287.339,329.795 287.172,334.129 288,338.5C 291.778,340.97 295.611,343.303 299.5,345.5C 299.24,347.595 298.074,348.928 296,349.5C 293.106,348.303 290.273,346.97 287.5,345.5C 286.671,350.467 286.171,355.467 286,360.5C 284.296,362.373 282.463,364.04 280.5,365.5C 279.503,347.341 279.17,329.008 279.5,310.5C 279.833,309.833 280.167,309.167 280.5,308.5C 290.167,299.5 299.5,290.167 308.5,280.5 Z"/></g>
<g><path style="opacity:1" fill="#aeb2f4" d="M 262.5,327.5 C 260.203,329.294 258.037,331.294 256,333.5C 255.809,331.292 255.309,329.292 254.5,327.5C 252.813,325.834 250.813,324.5 248.5,323.5C 247.833,315.833 247.167,308.167 246.5,300.5C 245.5,300.167 244.833,299.5 244.5,298.5C 247.167,295.167 250.167,292.167 253.5,289.5C 255.918,290.457 258.084,291.791 260,293.5C 260.333,304.167 260.667,314.833 261,325.5C 261.717,326.044 262.217,326.711 262.5,327.5 Z"/></g>
<g><path style="opacity:1" fill="#c5c8f7" d="M 337.5,291.5 C 340.807,293.153 344.14,294.82 347.5,296.5C 347.5,296.833 347.5,297.167 347.5,297.5C 344.899,301.771 341.566,305.437 337.5,308.5C 337.5,302.833 337.5,297.167 337.5,291.5 Z"/></g>
<g><path style="opacity:1" fill="#aeb2f4" d="M 347.5,297.5 C 352.605,299.887 357.605,302.554 362.5,305.5C 363.666,315.817 363.832,326.151 363,336.5C 354.667,331.5 346.333,326.5 338,321.5C 337.501,317.179 337.334,312.846 337.5,308.5C 341.566,305.437 344.899,301.771 347.5,297.5 Z"/></g>
<g><path style="opacity:1" fill="#d5d8fe" d="M 261.5,279.5 C 261.833,279.5 262.167,279.5 262.5,279.5C 266.005,282.514 269.838,285.181 274,287.5C 273.647,296.797 273.481,306.13 273.5,315.5C 273.5,315.833 273.5,316.167 273.5,316.5C 269.434,319.563 266.101,323.229 263.5,327.5C 263.167,327.5 262.833,327.5 262.5,327.5C 262.217,326.711 261.717,326.044 261,325.5C 260.667,314.833 260.333,304.167 260,293.5C 258.084,291.791 255.918,290.457 253.5,289.5C 250.167,292.167 247.167,295.167 244.5,298.5C 244.833,299.5 245.5,300.167 246.5,300.5C 247.167,308.167 247.833,315.833 248.5,323.5C 250.813,324.5 252.813,325.834 254.5,327.5C 255.032,333.152 255.365,338.819 255.5,344.5C 254.681,341.695 254.181,338.695 254,335.5C 251.963,337.706 249.797,339.706 247.5,341.5C 247.167,341.5 246.833,341.5 246.5,341.5C 243.909,334.896 241.409,328.229 239,321.5C 237.418,317.106 234.918,313.439 231.5,310.5C 231.5,310.167 231.5,309.833 231.5,309.5C 235.905,306.604 239.905,303.104 243.5,299C 243,298.5 242.5,298 242,297.5C 241.333,292.5 241.333,287.5 242,282.5C 245.424,284.918 249.09,286.918 253,288.5C 256.723,286.278 259.557,283.278 261.5,279.5 Z"/></g>
<g><path style="opacity:1" fill="#c6c9f7" d="M 287.5,304.5 C 295.558,309.281 303.725,313.948 312,318.5C 312.667,323.167 312.667,327.833 312,332.5C 304.164,327.581 296.164,322.914 288,318.5C 287.501,313.845 287.334,309.179 287.5,304.5 Z"/></g>
<g><path style="opacity:1" fill="#dee0fa" d="M 152.5,309.5 C 160.819,310.335 163.819,314.835 161.5,323C 155.633,322.468 152.3,319.134 151.5,313C 151.648,311.744 151.982,310.577 152.5,309.5 Z"/></g>
<g><path style="opacity:1" fill="#625afe" d="M 231.5,310.5 C 234.918,313.439 237.418,317.106 239,321.5C 241.409,328.229 243.909,334.896 246.5,341.5C 244.57,345.1 241.903,348.1 238.5,350.5C 228.551,345.197 218.885,339.53 209.5,333.5C 216.833,325.833 224.167,318.167 231.5,310.5 Z"/></g>
<g><path style="opacity:1" fill="#c4c7f6" d="M 279.5,310.5 C 279.17,329.008 279.503,347.341 280.5,365.5C 280.5,368.5 280.5,371.5 280.5,374.5C 278.716,374.107 277.05,373.441 275.5,372.5C 274.833,371.833 274.167,371.167 273.5,370.5C 273.5,352.5 273.5,334.5 273.5,316.5C 273.5,316.167 273.5,315.833 273.5,315.5C 275.5,313.833 277.5,312.167 279.5,310.5 Z"/></g>
<g><path style="opacity:1" fill="#e2e4fe" d="M 273.5,316.5 C 273.5,334.5 273.5,352.5 273.5,370.5C 266.85,366.862 260.184,363.195 253.5,359.5C 250.923,353.683 248.923,347.683 247.5,341.5C 249.797,339.706 251.963,337.706 254,335.5C 254.181,338.695 254.681,341.695 255.5,344.5C 259.517,347.267 263.684,349.934 268,352.5C 268.831,344.812 268.665,337.145 267.5,329.5C 266.14,328.82 264.807,328.153 263.5,327.5C 266.101,323.229 269.434,319.563 273.5,316.5 Z"/></g>
<g><path style="opacity:1" fill="#aeb2f4" d="M 326.5,326.5 C 344.893,337.782 363.06,349.449 381,361.5C 387.672,379.349 393.838,397.349 399.5,415.5C 397.533,415.739 395.699,415.406 394,414.5C 388.333,398.5 382.667,382.5 377,366.5C 360,355.5 343,344.5 326,333.5C 325.5,355.831 325.333,378.164 325.5,400.5C 323.216,400.025 321.216,399.025 319.5,397.5C 319.5,374.167 319.5,350.833 319.5,327.5C 319.5,327.167 319.5,326.833 319.5,326.5C 321.463,325.04 323.296,323.373 325,321.5C 325.198,323.382 325.698,325.048 326.5,326.5 Z"/></g>
<g><path style="opacity:1" fill="#c6c9f7" d="M 308.5,336.5 C 308.5,336.833 308.5,337.167 308.5,337.5C 306.14,340.527 303.473,343.194 300.5,345.5C 300.167,345.5 299.833,345.5 299.5,345.5C 295.611,343.303 291.778,340.97 288,338.5C 287.172,334.129 287.339,329.795 288.5,325.5C 295.201,329.223 301.867,332.89 308.5,336.5 Z"/></g>
<g><path style="opacity:1" fill="#b0b4f4" d="M 375.5,325.5 C 377.258,325.877 378.925,326.544 380.5,327.5C 381.664,334.476 381.831,341.476 381,348.5C 379.333,347.5 377.667,346.5 376,345.5C 375.5,338.842 375.334,332.175 375.5,325.5 Z"/></g>
<g><path style="opacity:1" fill="#c6c9f7" d="M 254.5,327.5 C 255.309,329.292 255.809,331.292 256,333.5C 258.037,331.294 260.203,329.294 262.5,327.5C 262.833,327.5 263.167,327.5 263.5,327.5C 264.807,328.153 266.14,328.82 267.5,329.5C 268.665,337.145 268.831,344.812 268,352.5C 263.684,349.934 259.517,347.267 255.5,344.5C 255.365,338.819 255.032,333.152 254.5,327.5 Z"/></g>
<g><path style="opacity:1" fill="#d4d8fd" d="M 319.5,327.5 C 319.5,350.833 319.5,374.167 319.5,397.5C 306.3,390.071 293.3,382.404 280.5,374.5C 280.5,371.5 280.5,368.5 280.5,365.5C 282.463,364.04 284.296,362.373 286,360.5C 286.171,355.467 286.671,350.467 287.5,345.5C 290.273,346.97 293.106,348.303 296,349.5C 298.074,348.928 299.24,347.595 299.5,345.5C 299.833,345.5 300.167,345.5 300.5,345.5C 303.933,348.059 307.599,350.392 311.5,352.5C 312.833,347.833 312.833,343.167 311.5,338.5C 310.583,337.873 309.583,337.539 308.5,337.5C 308.5,337.167 308.5,336.833 308.5,336.5C 312.438,333.902 316.105,330.902 319.5,327.5 Z"/></g>
<g><path style="opacity:1" fill="#dde0f9" d="M 200.5,342.5 C 200.672,343.492 200.338,344.158 199.5,344.5C 194.552,344.733 191.385,342.399 190,337.5C 188.795,334.132 189.795,331.798 193,330.5C 198.145,332.818 200.645,336.818 200.5,342.5 Z"/></g>
<g><path style="opacity:1" fill="#5d7282" d="M 208.5,333.5 C 208.833,333.5 209.167,333.5 209.5,333.5C 218.885,339.53 228.551,345.197 238.5,350.5C 238.5,350.833 238.5,351.167 238.5,351.5C 237.167,352.167 236.167,353.167 235.5,354.5C 228.487,351.508 226.154,353.842 228.5,361.5C 226.5,362.833 224.833,364.5 223.5,366.5C 212.995,360.749 202.662,354.749 192.5,348.5C 194.858,347.126 197.192,345.793 199.5,344.5C 200.338,344.158 200.672,343.492 200.5,342.5C 203.138,339.526 205.805,336.526 208.5,333.5 Z"/></g>
<g><path style="opacity:1" fill="#afb3f4" d="M 308.5,337.5 C 309.583,337.539 310.583,337.873 311.5,338.5C 312.833,343.167 312.833,347.833 311.5,352.5C 307.599,350.392 303.933,348.059 300.5,345.5C 303.473,343.194 306.14,340.527 308.5,337.5 Z"/></g>
<g><path style="opacity:1" fill="#a3aac5" d="M 410.5,338.5 C 410.833,338.5 411.167,338.5 411.5,338.5C 411.5,375.833 411.5,413.167 411.5,450.5C 410.508,450.672 409.842,450.338 409.5,449.5C 410.498,412.67 410.832,375.67 410.5,338.5 Z"/></g>
<g><path style="opacity:1" fill="#928cfc" d="M 246.5,341.5 C 246.833,341.5 247.167,341.5 247.5,341.5C 248.923,347.683 250.923,353.683 253.5,359.5C 248.632,356.566 243.632,353.9 238.5,351.5C 238.5,351.167 238.5,350.833 238.5,350.5C 241.903,348.1 244.57,345.1 246.5,341.5 Z"/></g>
<g><path style="opacity:1" fill="#afb3f4" d="M 330.5,346.5 C 336.103,348.969 341.436,351.969 346.5,355.5C 347.662,360.131 347.828,364.798 347,369.5C 341.667,366.167 336.333,362.833 331,359.5C 330.501,355.179 330.334,350.846 330.5,346.5 Z"/></g>
<g><path style="opacity:1" fill="#afb3f4" d="M 295.5,350.5 C 301.186,353.094 306.686,356.094 312,359.5C 312.667,364.167 312.667,368.833 312,373.5C 303.75,368.625 295.583,363.625 287.5,358.5C 290.521,356.146 293.188,353.479 295.5,350.5 Z"/></g>
<g><path style="opacity:1" fill="#8c9ba7" d="M 238.5,351.5 C 243.632,353.9 248.632,356.566 253.5,359.5C 260.184,363.195 266.85,366.862 273.5,370.5C 274.167,371.167 274.833,371.833 275.5,372.5C 273.596,372.738 272.262,373.738 271.5,375.5C 266.334,374.34 264.668,376.34 266.5,381.5C 263.833,383.167 261.167,384.833 258.5,386.5C 246.663,380.083 234.996,373.416 223.5,366.5C 224.833,364.5 226.5,362.833 228.5,361.5C 230.279,365.447 233.279,366.947 237.5,366C 238.947,361.852 238.281,358.019 235.5,354.5C 236.167,353.167 237.167,352.167 238.5,351.5 Z"/></g>
<g><path style="opacity:1" fill="#dbdef9" d="M 235.5,354.5 C 238.281,358.019 238.947,361.852 237.5,366C 233.279,366.947 230.279,365.447 228.5,361.5C 226.154,353.842 228.487,351.508 235.5,354.5 Z"/></g>
<g><path style="opacity:1" fill="#aeb2f4" d="M 354.5,364.5 C 357.8,366.108 361.133,367.775 364.5,369.5C 365.666,380.151 365.832,390.818 365,401.5C 361.501,399.752 358.168,397.752 355,395.5C 354.5,385.172 354.334,374.839 354.5,364.5 Z"/></g>
<g><path style="opacity:1" fill="#afb3f4" d="M 330.5,370.5 C 335.799,373.444 341.133,376.444 346.5,379.5C 347.662,384.131 347.828,388.798 347,393.5C 341.667,390.167 336.333,386.833 331,383.5C 330.501,379.179 330.334,374.846 330.5,370.5 Z"/></g>
<g><path style="opacity:1" fill="#5e7381" d="M 275.5,372.5 C 277.05,373.441 278.716,374.107 280.5,374.5C 293.3,382.404 306.3,390.071 319.5,397.5C 321.216,399.025 323.216,400.025 325.5,400.5C 353.136,417.323 381.136,433.656 409.5,449.5C 409.842,450.338 410.508,450.672 411.5,450.5C 411.888,455.628 411.388,460.628 410,465.5C 406.861,469.577 403.028,470.41 398.5,468C 351.606,441.059 304.94,413.892 258.5,386.5C 261.167,384.833 263.833,383.167 266.5,381.5C 267.59,387.126 270.757,389.126 276,387.5C 277.002,382.512 275.502,378.512 271.5,375.5C 272.262,373.738 273.596,372.738 275.5,372.5 Z"/></g>
<g><path style="opacity:1" fill="#d3d6f9" d="M 271.5,375.5 C 275.502,378.512 277.002,382.512 276,387.5C 270.757,389.126 267.59,387.126 266.5,381.5C 264.668,376.34 266.334,374.34 271.5,375.5 Z"/></g>
<g><path style="opacity:1" fill="#cfd4f7" d="M 305.5,396.5 C 309.562,396.724 312.395,398.724 314,402.5C 314.769,405.099 314.602,407.599 313.5,410C 307.478,410.324 304.144,407.324 303.5,401C 303.519,399.167 304.185,397.667 305.5,396.5 Z"/></g>
<g><path style="opacity:1" fill="#d0d4f8" d="M 343.5,418.5 C 347.562,418.724 350.395,420.724 352,424.5C 353.549,432.945 350.883,434.611 344,429.5C 341.08,425.819 340.913,422.152 343.5,418.5 Z"/></g>
</svg>
