<?xml version="1.0" encoding="UTF-8"?>
<!DOCTYPE svg PUBLIC "-//W3C//DTD SVG 1.1//EN" "http://www.w3.org/Graphics/SVG/1.1/DTD/svg11.dtd">
<svg xmlns="http://www.w3.org/2000/svg" version="1.1" width="512px" height="512px" style="shape-rendering:geometricPrecision; text-rendering:geometricPrecision; image-rendering:optimizeQuality; fill-rule:evenodd; clip-rule:evenodd" xmlns:xlink="http://www.w3.org/1999/xlink">
<g><path style="opacity:0.967" fill="#e9e5f6" d="M 157.5,-0.5 C 160.167,-0.5 162.833,-0.5 165.5,-0.5C 226.167,34.8333 286.833,70.1667 347.5,105.5C 344.111,106.691 340.778,108.191 337.5,110C 336.663,111.011 336.33,112.178 336.5,113.5C 277.527,79.345 218.527,45.1784 159.5,11C 155.781,8.63609 151.781,7.13609 147.5,6.5C 150.833,4.16667 154.167,1.83333 157.5,-0.5 Z"/></g>
<g><path style="opacity:0.996" fill="#fbfbfd" d="M 147.5,6.5 C 151.781,7.13609 155.781,8.63609 159.5,11C 218.527,45.1784 277.527,79.345 336.5,113.5C 342.39,116.072 347.39,119.739 351.5,124.5C 353.644,127.122 354.977,130.122 355.5,133.5C 329.855,135.491 303.855,136.158 277.5,135.5C 242.896,116.53 208.563,97.03 174.5,77C 171.784,74.8489 169.284,75.0155 167,77.5C 165.182,85.3785 167.348,91.8785 173.5,97C 205.194,115.178 236.861,133.345 268.5,151.5C 226.337,152.499 184.003,152.832 141.5,152.5C 141.825,144.648 141.492,136.982 140.5,129.5C 140.333,90.8319 140.5,52.1652 141,13.5C 141.985,10.017 144.151,7.68362 147.5,6.5 Z"/></g>
<g><path style="opacity:1" fill="#453a6c" d="M 277.5,135.5 C 291.44,144.478 305.773,152.978 320.5,161C 325.512,166.453 326.679,172.62 324,179.5C 321.455,180.797 318.955,180.631 316.5,179C 300.636,169.569 284.636,160.402 268.5,151.5C 236.861,133.345 205.194,115.178 173.5,97C 167.348,91.8785 165.182,85.3785 167,77.5C 169.284,75.0155 171.784,74.8489 174.5,77C 208.563,97.03 242.896,116.53 277.5,135.5 Z"/></g>
<g><path style="opacity:0.978" fill="#d8d2ec" d="M 347.5,105.5 C 351.114,107.307 354.78,109.14 358.5,111C 360.79,112.777 362.457,114.944 363.5,117.5C 359.164,119.332 355.164,121.665 351.5,124.5C 347.39,119.739 342.39,116.072 336.5,113.5C 336.33,112.178 336.663,111.011 337.5,110C 340.778,108.191 344.111,106.691 347.5,105.5 Z"/></g>
<g><path style="opacity:0.961" fill="#c2b7eb" d="M 363.5,117.5 C 366.26,120.683 368.26,124.349 369.5,128.5C 365.577,129.795 361.91,131.628 358.5,134C 357.663,135.011 357.33,136.178 357.5,137.5C 356.833,136.167 356.167,134.833 355.5,133.5C 354.977,130.122 353.644,127.122 351.5,124.5C 355.164,121.665 359.164,119.332 363.5,117.5 Z"/></g>
<g><path style="opacity:0.997" fill="#f6f5fa" d="M 140.5,129.5 C 141.492,136.982 141.825,144.648 141.5,152.5C 184.003,152.832 226.337,152.499 268.5,151.5C 284.636,160.402 300.636,169.569 316.5,179C 318.955,180.631 321.455,180.797 324,179.5C 326.679,172.62 325.512,166.453 320.5,161C 305.773,152.978 291.44,144.478 277.5,135.5C 303.855,136.158 329.855,135.491 355.5,133.5C 356.167,134.833 356.833,136.167 357.5,137.5C 357.5,177.167 357.5,216.833 357.5,256.5C 313.167,256.5 268.833,256.5 224.5,256.5C 224.832,244.482 224.499,232.482 223.5,220.5C 217.003,217.086 210.67,213.419 204.5,209.5C 203.501,225.152 203.167,240.819 203.5,256.5C 200.167,256.5 196.833,256.5 193.5,256.5C 193.831,228.328 193.498,200.328 192.5,172.5C 186.358,168.592 180.024,164.926 173.5,161.5C 172.5,193.16 172.167,224.826 172.5,256.5C 162.167,256.5 151.833,256.5 141.5,256.5C 141.824,263.354 141.491,270.021 140.5,276.5C 140.5,227.5 140.5,178.5 140.5,129.5 Z"/></g>
<g><path style="opacity:0.961" fill="#ab98eb" d="M 369.5,128.5 C 370.661,251.472 370.828,374.472 370,497.5C 369.31,500.196 367.81,502.363 365.5,504C 362.273,506.112 358.94,507.945 355.5,509.5C 355.709,508.078 356.209,506.745 357,505.5C 357.5,462.835 357.667,420.168 357.5,377.5C 357.5,349.167 357.5,320.833 357.5,292.5C 357.5,280.5 357.5,268.5 357.5,256.5C 357.5,216.833 357.5,177.167 357.5,137.5C 357.33,136.178 357.663,135.011 358.5,134C 361.91,131.628 365.577,129.795 369.5,128.5 Z"/></g>
<g><path style="opacity:1" fill="#5aacf9" d="M 192.5,172.5 C 192.832,206.004 192.498,239.338 191.5,272.5C 185.861,269.345 180.194,266.179 174.5,263C 172.771,261.211 172.104,259.044 172.5,256.5C 172.167,224.826 172.5,193.16 173.5,161.5C 180.024,164.926 186.358,168.592 192.5,172.5 Z"/></g>
<g><path style="opacity:1" fill="#453a6c" d="M 249.5,167.5 C 253.105,167.799 256.439,168.965 259.5,171C 279.003,182.586 298.67,193.919 318.5,205C 325.564,210.455 327.231,217.121 323.5,225C 321.833,225.667 320.167,225.667 318.5,225C 296.833,212.667 275.167,200.333 253.5,188C 247.484,181.94 246.15,175.107 249.5,167.5 Z"/></g>
<g><path style="opacity:1" fill="#95c8f9" d="M 192.5,172.5 C 193.498,200.328 193.831,228.328 193.5,256.5C 193.829,262.206 193.495,267.872 192.5,273.5C 191.893,273.376 191.56,273.043 191.5,272.5C 192.498,239.338 192.832,206.004 192.5,172.5 Z"/></g>
<g><path style="opacity:1" fill="#14dab0" d="M 224.5,256.5 C 224.667,268.171 224.5,279.838 224,291.5C 217.168,287.752 210.501,283.752 204,279.5C 203.5,271.841 203.334,264.174 203.5,256.5C 203.167,240.819 203.501,225.152 204.5,209.5C 210.67,213.419 217.003,217.086 223.5,220.5C 224.499,232.482 224.832,244.482 224.5,256.5 Z"/></g>
<g><path style="opacity:1" fill="#f3f2f8" d="M 172.5,256.5 C 172.104,259.044 172.771,261.211 174.5,263C 180.194,266.179 185.861,269.345 191.5,272.5C 191.56,273.043 191.893,273.376 192.5,273.5C 193.495,267.872 193.829,262.206 193.5,256.5C 196.833,256.5 200.167,256.5 203.5,256.5C 203.334,264.174 203.5,271.841 204,279.5C 210.501,283.752 217.168,287.752 224,291.5C 224.5,279.838 224.667,268.171 224.5,256.5C 268.833,256.5 313.167,256.5 357.5,256.5C 357.5,268.5 357.5,280.5 357.5,292.5C 344.5,292.5 331.5,292.5 318.5,292.5C 318.823,286.31 318.49,280.31 317.5,274.5C 310.946,270.972 304.446,267.305 298,263.5C 297.5,286.831 297.333,310.164 297.5,333.5C 296.504,320.01 296.171,306.344 296.5,292.5C 293.5,292.5 290.5,292.5 287.5,292.5C 287.828,304.345 287.495,316.012 286.5,327.5C 286.833,310.487 286.499,293.487 285.5,276.5C 279.416,272.707 273.249,269.041 267,265.5C 266.5,282.163 266.333,298.83 266.5,315.5C 265.508,308.018 265.175,300.352 265.5,292.5C 262.167,292.5 258.833,292.5 255.5,292.5C 255.666,285.492 255.5,278.492 255,271.5C 248.581,267.707 242.081,264.04 235.5,260.5C 234.501,271.146 234.168,281.813 234.5,292.5C 203.5,292.5 172.5,292.5 141.5,292.5C 141.825,300.352 141.492,308.018 140.5,315.5C 140.5,302.5 140.5,289.5 140.5,276.5C 141.491,270.021 141.824,263.354 141.5,256.5C 151.833,256.5 162.167,256.5 172.5,256.5 Z"/></g>
<g><path style="opacity:1" fill="#ff4c5b" d="M 255.5,292.5 C 255.666,298.176 255.499,303.843 255,309.5C 248.5,305.667 242,301.833 235.5,298C 234.594,296.301 234.261,294.467 234.5,292.5C 234.168,281.813 234.501,271.146 235.5,260.5C 242.081,264.04 248.581,267.707 255,271.5C 255.5,278.492 255.666,285.492 255.5,292.5 Z"/></g>
<g><path style="opacity:1" fill="#0adaae" d="M 317.5,274.5 C 317.831,298.006 317.498,321.339 316.5,344.5C 309.995,341.083 303.662,337.416 297.5,333.5C 297.333,310.164 297.5,286.831 298,263.5C 304.446,267.305 310.946,270.972 317.5,274.5 Z"/></g>
<g><path style="opacity:1" fill="#f7e042" d="M 286.5,327.5 C 279.798,323.485 273.131,319.485 266.5,315.5C 266.333,298.83 266.5,282.163 267,265.5C 273.249,269.041 279.416,272.707 285.5,276.5C 286.499,293.487 286.833,310.487 286.5,327.5 Z"/></g>
<g><path style="opacity:1" fill="#b7ebe6" d="M 317.5,274.5 C 318.49,280.31 318.823,286.31 318.5,292.5C 318.833,310.179 318.5,327.846 317.5,345.5C 316.893,345.376 316.56,345.043 316.5,344.5C 317.498,321.339 317.831,298.006 317.5,274.5 Z"/></g>
<g><path style="opacity:0.998" fill="#f1eef7" d="M 234.5,292.5 C 234.261,294.467 234.594,296.301 235.5,298C 242,301.833 248.5,305.667 255,309.5C 255.499,303.843 255.666,298.176 255.5,292.5C 258.833,292.5 262.167,292.5 265.5,292.5C 265.175,300.352 265.508,308.018 266.5,315.5C 273.131,319.485 279.798,323.485 286.5,327.5C 287.495,316.012 287.828,304.345 287.5,292.5C 290.5,292.5 293.5,292.5 296.5,292.5C 296.171,306.344 296.504,320.01 297.5,333.5C 303.662,337.416 309.995,341.083 316.5,344.5C 316.56,345.043 316.893,345.376 317.5,345.5C 318.5,327.846 318.833,310.179 318.5,292.5C 331.5,292.5 344.5,292.5 357.5,292.5C 357.5,320.833 357.5,349.167 357.5,377.5C 342.5,377.5 327.5,377.5 312.5,377.5C 307.429,365.427 299.429,355.76 288.5,348.5C 273.642,341.176 263.808,345.509 259,361.5C 258.502,364.817 258.335,368.15 258.5,371.5C 258.5,373.5 258.5,375.5 258.5,377.5C 254.167,377.5 249.833,377.5 245.5,377.5C 245.368,372.734 243.702,368.567 240.5,365C 219.292,352.564 197.959,340.397 176.5,328.5C 173.698,328.971 172.364,330.638 172.5,333.5C 172.821,337.802 174.487,341.469 177.5,344.5C 195.851,355.194 214.184,365.861 232.5,376.5C 202.005,377.498 171.338,377.831 140.5,377.5C 140.5,356.833 140.5,336.167 140.5,315.5C 141.492,308.018 141.825,300.352 141.5,292.5C 172.5,292.5 203.5,292.5 234.5,292.5 Z"/></g>
<g><path style="opacity:1" fill="#463b6d" d="M 174.5,300.5 C 178.105,300.799 181.439,301.965 184.5,304C 202.669,314.919 221.003,325.586 239.5,336C 244.985,340.107 246.485,345.273 244,351.5C 241.79,352.749 239.624,352.582 237.5,351C 217.997,339.414 198.33,328.081 178.5,317C 173.271,312.2 171.938,306.7 174.5,300.5 Z"/></g>
<g><path style="opacity:1" fill="#463b6d" d="M 245.5,377.5 C 244.683,379.478 243.183,380.478 241,380.5C 237.827,379.813 234.994,378.479 232.5,376.5C 214.184,365.861 195.851,355.194 177.5,344.5C 174.487,341.469 172.821,337.802 172.5,333.5C 172.364,330.638 173.698,328.971 176.5,328.5C 197.959,340.397 219.292,352.564 240.5,365C 243.702,368.567 245.368,372.734 245.5,377.5 Z"/></g>
<g><path style="opacity:1" fill="#f7de42" d="M 288.5,348.5 C 288.833,361.85 288.499,375.183 287.5,388.5C 277.97,382.57 268.303,376.903 258.5,371.5C 258.335,368.15 258.502,364.817 259,361.5C 263.808,345.509 273.642,341.176 288.5,348.5 Z"/></g>
<g><path style="opacity:1" fill="#fe4957" d="M 288.5,348.5 C 299.429,355.76 307.429,365.427 312.5,377.5C 318.154,390.236 319.988,403.57 318,417.5C 314.022,431.571 305.189,436.237 291.5,431.5C 278.584,423.74 269.417,412.74 264,398.5C 261.226,391.69 259.393,384.69 258.5,377.5C 258.5,375.5 258.5,373.5 258.5,371.5C 268.303,376.903 277.97,382.57 287.5,388.5C 288.499,375.183 288.833,361.85 288.5,348.5 Z"/></g>
<g><path style="opacity:0.996" fill="#eeebf6" d="M 232.5,376.5 C 234.994,378.479 237.827,379.813 241,380.5C 243.183,380.478 244.683,379.478 245.5,377.5C 249.833,377.5 254.167,377.5 258.5,377.5C 259.393,384.69 261.226,391.69 264,398.5C 269.417,412.74 278.584,423.74 291.5,431.5C 264.5,432.167 237.5,432.833 210.5,433.5C 191.358,422.092 172.024,410.926 152.5,400C 146.008,393.849 142.008,386.349 140.5,377.5C 171.338,377.831 202.005,377.498 232.5,376.5 Z"/></g>
<g><path style="opacity:0.994" fill="#ece9f5" d="M 312.5,377.5 C 327.5,377.5 342.5,377.5 357.5,377.5C 357.667,420.168 357.5,462.835 357,505.5C 356.209,506.745 355.709,508.078 355.5,509.5C 354.833,510.167 354.167,510.833 353.5,511.5C 350.833,511.5 348.167,511.5 345.5,511.5C 300.699,485.262 255.699,459.262 210.5,433.5C 237.5,432.833 264.5,432.167 291.5,431.5C 305.189,436.237 314.022,431.571 318,417.5C 319.988,403.57 318.154,390.236 312.5,377.5 Z"/></g>
</svg>
